<svg width="32" height="32" viewBox="0 0 32 32" fill="none" xmlns="http://www.w3.org/2000/svg">
<g clip-path="url(#clip0_94_27)">
<path d="M26.6966 11.3915C25.9178 10.8582 25.6761 9.79936 26.1465 8.98092C26.9266 7.6233 26.7999 5.95499 25.8236 4.7308C24.8473 3.50656 23.2491 3.01193 21.7519 3.47037C20.8491 3.74687 19.8707 3.27549 19.5242 2.39756C18.9492 0.941061 17.5659 0 16 0C14.4342 0 13.0509 0.941061 12.4759 2.39756C12.1293 3.27556 11.1507 3.74668 10.2481 3.47037C8.75117 3.01187 7.15274 3.50656 6.17643 4.7308C5.20005 5.95505 5.07336 7.62336 5.85355 8.98092C6.32392 9.79929 6.08224 10.8582 5.30336 11.3915C4.01137 12.2762 3.40168 13.8342 3.75005 15.3608C4.09843 16.8875 5.3238 18.0266 6.87167 18.2632C7.80473 18.4057 8.48198 19.2548 8.41336 20.1963C8.39248 20.4823 8.40386 20.7642 8.44448 21.0385L5.35036 27.8823C5.19305 28.2303 5.25136 28.6379 5.49993 28.9278C5.74855 29.2178 6.1423 29.3374 6.51036 29.2352L9.87654 28.2982L11.3968 31.4444C11.5611 31.7845 11.9054 32.0001 12.2824 32.0001C12.2865 32.0001 12.2908 32.0001 12.295 32C12.6769 31.9951 13.0214 31.7697 13.1787 31.4217L15.9429 25.3075L18.8999 31.4434C19.064 31.7841 19.4086 32.0001 19.786 32.0001C19.7898 32.0001 19.7937 32.0001 19.7976 32C20.1795 31.9956 20.5242 31.7704 20.682 31.4226L22.1247 28.2402L25.5128 29.0946C25.8831 29.1881 26.274 29.0585 26.5154 28.7626C26.7568 28.4667 26.8051 28.0578 26.6394 27.7138L23.5197 21.2402C23.5885 20.9033 23.6126 20.5529 23.5865 20.1964C23.5178 19.255 24.1951 18.4058 25.1282 18.2632C26.6761 18.0268 27.9014 16.8875 28.2499 15.3609C28.5984 13.8342 27.9886 12.2762 26.6966 11.3915ZM12.2529 28.6941L11.2904 26.7021C11.1229 26.3556 10.7745 26.1463 10.4048 26.1463C10.3173 26.1463 10.2286 26.1581 10.1409 26.1825L8.00967 26.7757L9.60623 23.2443C9.88079 23.499 10.1967 23.716 10.5482 23.8853C11.9242 24.5479 13.532 24.3283 14.6775 23.3311L12.2529 28.6941ZM23.9538 26.6724L21.8087 26.1316C21.347 26.0151 20.8688 26.2458 20.6723 26.6792L19.7588 28.6941L17.0732 23.1211C17.1295 23.1621 17.1841 23.2062 17.2363 23.2544C17.9552 23.9188 18.8712 24.2646 19.8016 24.2645C20.3596 24.2645 20.9228 24.1401 21.4516 23.8855C21.7763 23.7291 22.0701 23.5317 22.3295 23.3019L23.9538 26.6724ZM26.3319 14.923C26.1986 15.5071 25.7344 16.1804 24.8311 16.3183C23.886 16.4627 23.0372 16.9539 22.4411 17.7015C21.845 18.4489 21.555 19.3858 21.6246 20.3393C21.691 21.2505 21.138 21.853 20.5982 22.1129C20.0585 22.3729 19.2426 22.4297 18.5715 21.8095C17.8693 21.1606 16.9562 20.8033 16 20.8033C15.044 20.8033 14.1307 21.1606 13.4285 21.8095C12.7574 22.4296 11.9415 22.3728 11.4019 22.1129C10.8621 21.853 10.309 21.2505 10.3755 20.3392C10.445 19.3856 10.1551 18.4488 9.55892 17.7013C8.96286 16.9538 8.11405 16.4626 7.16899 16.3182C6.26574 16.1802 5.80149 15.507 5.66818 14.9229C5.53486 14.3388 5.66105 13.5308 6.41492 13.0145C7.2038 12.4744 7.75542 11.6635 7.96823 10.7315C8.18105 9.79942 8.0358 8.82955 7.55942 8.00055C7.10417 7.20836 7.34105 6.42555 7.71455 5.95718C8.08811 5.48886 8.79855 5.08374 9.67217 5.35118C10.5863 5.63118 11.5642 5.55686 12.4255 5.14205C13.287 4.72724 13.9547 4.00905 14.3058 3.11974C14.6412 2.27 15.4009 1.96718 16 1.96718C16.599 1.96718 17.3588 2.27 17.6943 3.11987C18.0453 4.00918 18.713 4.72737 19.5745 5.14224C20.4359 5.55705 21.4138 5.63136 22.3279 5.35137C23.2013 5.08368 23.9119 5.48893 24.2855 5.95736C24.659 6.4258 24.896 7.20855 24.4406 8.00073C23.9642 8.82967 23.8191 9.79954 24.0318 10.7317C24.2446 11.6638 24.7962 12.4746 25.5851 13.0148C26.3391 13.531 26.4652 14.339 26.3319 14.923Z" fill="white"/>
<path d="M16 5.19592C11.9407 5.19592 8.63806 8.49848 8.63806 12.5578C8.63806 16.6172 11.9406 19.9198 16 19.9198C20.0595 19.9198 23.3619 16.6173 23.3619 12.5578C23.3619 8.49841 20.0594 5.19592 16 5.19592ZM16 17.9526C13.0254 17.9526 10.6054 15.5325 10.6054 12.5579C10.6054 9.58329 13.0254 7.16323 16 7.16323C18.9747 7.16323 21.3947 9.58329 21.3947 12.5579C21.3947 15.5325 18.9747 17.9526 16 17.9526Z" fill="white"/>
<path d="M19.3402 10.8933C19.0198 10.4547 18.4046 10.3587 17.9657 10.6791L15.2134 12.6894L14.724 11.9926C14.4117 11.548 13.7981 11.4408 13.3537 11.753C12.9091 12.0651 12.8019 12.6787 13.1141 13.1232L14.1794 14.64C14.3311 14.8561 14.5634 15.0021 14.8239 15.0451C14.8773 15.054 14.9309 15.0583 14.9843 15.0583C15.1914 15.0583 15.395 14.9928 15.5645 14.869L19.126 12.2677C19.5647 11.9473 19.6605 11.332 19.3402 10.8933Z" fill="white"/>
</g>
<defs>
<clipPath id="clip0_94_27">
<rect width="32" height="32" fill="white"/>
</clipPath>
</defs>
</svg>
