<svg width="32" height="32" viewBox="0 0 32 32" fill="none" xmlns="http://www.w3.org/2000/svg">
<path d="M21 22.5H19.4375V21.3561C19.4375 20.8214 19.7148 20.3263 20.1792 20.0319C22.4543 18.5896 23.8125 16.1244 23.8125 13.4375C23.8125 9.12969 20.3078 5.625 16 5.625C11.6922 5.625 8.1875 9.12969 8.1875 13.4375C8.1875 16.1244 9.54575 18.5896 11.8208 20.0319C12.2852 20.3263 12.5625 20.8214 12.5625 21.3561V22.5H11C7.03681 22.5 3.8125 25.7243 3.8125 29.6875V31.0625C3.8125 31.5802 4.23225 32 4.75 32H27.25C27.7677 32 28.1875 31.5802 28.1875 31.0625V29.6875C28.1875 25.7243 24.9632 22.5 21 22.5ZM10.0625 13.4375C10.0625 10.1636 12.7261 7.5 16 7.5C19.2739 7.5 21.9375 10.1636 21.9375 13.4375C21.9375 15.4786 20.9049 17.3518 19.1752 18.4483C18.3786 18.9534 17.8366 19.7371 17.6427 20.625H16.9375V15.7008L18.5379 14.1004C18.904 13.7343 18.904 13.1407 18.5379 12.7746C18.1718 12.4085 17.5782 12.4085 17.2121 12.7746L16 13.9867L14.7879 12.7746C14.4218 12.4085 13.8282 12.4085 13.4621 12.7746C13.0959 13.1407 13.0959 13.7343 13.4621 14.1004L15.0625 15.7008V20.625H14.3573C14.1634 19.7371 13.6215 18.9534 12.8247 18.4483C11.0951 17.3518 10.0625 15.4786 10.0625 13.4375ZM17.5625 22.5V23.4375C17.5625 24.2991 16.8616 25 16 25C15.1384 25 14.4375 24.2991 14.4375 23.4375V22.5H17.5625ZM26.3125 30.125H5.6875V29.6875C5.6875 26.7582 8.07069 24.375 11 24.375H12.6935C13.1027 25.8161 14.4296 26.875 16 26.875C17.5704 26.875 18.8972 25.8161 19.3065 24.375H21C23.9293 24.375 26.3125 26.7582 26.3125 29.6875V30.125Z" fill="white"/>
<path d="M16 3.75C16.5178 3.75 16.9375 3.33025 16.9375 2.8125V0.9375C16.9375 0.41975 16.5178 0 16 0C15.4822 0 15.0625 0.41975 15.0625 0.9375V2.8125C15.0625 3.33025 15.4822 3.75 16 3.75Z" fill="white"/>
<path d="M9.87564 4.70475C10.1345 5.15313 10.7079 5.30675 11.1563 5.04788C11.6046 4.789 11.7583 4.21563 11.4994 3.76725L10.5619 2.14344C10.303 1.69507 9.72964 1.54144 9.28126 1.80032C8.83288 2.05919 8.67926 2.63256 8.93813 3.08094L9.87564 4.70475Z" fill="white"/>
<path d="M4.70594 7.99938L6.32975 8.93689C6.77813 9.19576 7.3515 9.04214 7.61037 8.59376C7.86925 8.14539 7.71562 7.57201 7.26725 7.31313L5.64344 6.37563C5.19506 6.11676 4.62169 6.27038 4.36282 6.71876C4.10394 7.16713 4.25757 7.74051 4.70594 7.99938Z" fill="white"/>
<path d="M24.3896 8.59376C24.6485 9.04214 25.2219 9.19576 25.6702 8.93689L27.2941 7.99938C27.7424 7.74051 27.8961 7.16713 27.6372 6.71876C27.3783 6.27038 26.8049 6.11676 26.3566 6.37563L24.7327 7.31313C24.2844 7.57201 24.1307 8.14539 24.3896 8.59376Z" fill="white"/>
<path d="M20.8438 5.04788C21.2921 5.30675 21.8655 5.15313 22.1244 4.70475L23.0619 3.08094C23.3207 2.63256 23.1671 2.05919 22.7187 1.80032C22.2704 1.54144 21.697 1.69507 21.4381 2.14344L20.5006 3.76725C20.2418 4.21563 20.3954 4.789 20.8438 5.04788Z" fill="white"/>
</svg>
