<svg width="32" height="32" viewBox="0 0 32 32" fill="none" xmlns="http://www.w3.org/2000/svg">
<g clip-path="url(#clip0_94_104)">
<path d="M31.2 13.856C31.199 13.8552 31.1983 13.8543 31.1976 13.8535L18.1441 0.800539C17.5877 0.243897 16.8479 -0.0625 16.061 -0.0625C15.2742 -0.0625 14.5344 0.243897 13.9778 0.800539L0.931126 13.8469C0.926732 13.8513 0.922093 13.856 0.917943 13.8604C-0.224638 15.0095 -0.222685 16.8741 0.923558 18.0203C1.44724 18.5442 2.13865 18.8474 2.87815 18.8794C2.90843 18.8824 2.9387 18.8838 2.96922 18.8838H3.48924V28.4898C3.48924 30.3909 5.03612 31.9376 6.93724 31.9376H12.0442C12.562 31.9376 12.9817 31.5176 12.9817 31.0001V23.4688C12.9817 22.6014 13.6875 21.8958 14.5549 21.8958H17.5672C18.4346 21.8958 19.1402 22.6014 19.1402 23.4688V31.0001C19.1402 31.5176 19.5598 31.9376 20.0777 31.9376H25.1846C27.086 31.9376 28.6326 30.3909 28.6326 28.4898V18.8838H29.115C29.9017 18.8838 30.6414 18.5774 31.1983 18.0205C32.3458 16.8726 32.3462 15.0047 31.2 13.856ZM29.8724 16.6949C29.67 16.8972 29.4009 17.0088 29.115 17.0088H27.6951C27.1773 17.0088 26.7576 17.4285 26.7576 17.9463V28.4898C26.7576 29.357 26.052 30.0626 25.1846 30.0626H21.0152V23.4688C21.0152 21.5677 19.4685 20.0208 17.5672 20.0208H14.5549C12.6536 20.0208 11.1067 21.5677 11.1067 23.4688V30.0626H6.93724C6.07005 30.0626 5.36424 29.357 5.36424 28.4898V17.9463C5.36424 17.4285 4.94456 17.0088 4.42674 17.0088H3.03123C3.01658 17.0078 3.00218 17.0071 2.98728 17.0069C2.70799 17.002 2.44602 16.8911 2.24973 16.6946C1.83225 16.2771 1.83225 15.5977 2.24973 15.18C2.24998 15.18 2.24998 15.1797 2.25022 15.1795L2.25095 15.1787L15.304 2.12622C15.5061 1.92383 15.7749 1.8125 16.061 1.8125C16.3469 1.8125 16.6157 1.92383 16.8181 2.12622L29.8682 15.1761C29.8702 15.178 29.8724 15.18 29.8743 15.1819C30.2896 15.6001 30.2889 16.2781 29.8724 16.6949Z" fill="white"/>
</g>
<defs>
<clipPath id="clip0_94_104">
<rect width="32" height="32" fill="white"/>
</clipPath>
</defs>
</svg>
