<svg width="32" height="32" viewBox="0 0 32 32" fill="none" xmlns="http://www.w3.org/2000/svg">
<g clip-path="url(#clip0_93_7)">
<path d="M32 0H0V24.997H10.7618C11.0192 25.3034 11.3029 25.5871 11.6095 25.8443V32L15.8639 30.5688L20.1184 32V26.0613C20.5305 25.7496 20.9062 25.3922 21.2383 24.997H32V0ZM7.876 19.372C7.55794 18.2922 6.70487 17.4391 5.625 17.121V7.876C6.70481 7.55794 7.55794 6.70487 7.876 5.625H24.1241C24.4421 6.70481 25.2952 7.55794 26.3751 7.876V17.121C25.2953 17.4391 24.4421 18.2921 24.1241 19.372H22.7287C22.4626 17.915 21.7335 16.6178 20.6998 15.6389H23.4284V13.7639H8.527V15.6389H11.3003C10.2666 16.6178 9.53744 17.9151 9.27137 19.372H7.876ZM16 25.5689C13.2622 25.5689 11.035 23.3416 11.035 20.6039C11.035 17.8662 13.2623 15.6389 16 15.6389C18.7377 15.6389 20.965 17.8662 20.965 20.6039C20.965 23.3416 18.7378 25.5689 16 25.5689ZM18.2435 29.3903L15.864 28.5907L13.4846 29.3903V26.9646C14.2636 27.2738 15.1123 27.4438 16.0001 27.4438C16.7856 27.4438 17.5404 27.3103 18.2436 27.0655V29.3903H18.2435ZM30.125 23.122H22.3597C22.5939 22.5326 22.7481 21.9031 22.8096 21.247H25.8644V20.3095C25.8644 19.511 26.514 18.8614 27.3125 18.8614H28.25V6.13569H27.3125C26.514 6.13569 25.8644 5.48606 25.8644 4.68756V3.75006H6.13562V4.68756C6.13562 5.48606 5.486 6.13569 4.6875 6.13569H3.75V18.8614H4.6875C5.486 18.8614 6.13562 19.511 6.13562 20.3095V21.247H9.19044C9.25194 21.9031 9.40612 22.5326 9.64031 23.122H1.875V1.875H30.125V23.122Z" fill="white"/>
<path d="M8.527 9.32617H23.4731V11.2012H8.527V9.32617Z" fill="white"/>
<path d="M16 17.5908C14.3592 17.5908 13.0243 18.9257 13.0243 20.5665C13.0243 22.2073 14.3592 23.5422 16 23.5422C17.6408 23.5422 18.9757 22.2073 18.9757 20.5665C18.9757 18.9257 17.6408 17.5908 16 17.5908ZM16 21.6673C15.3931 21.6673 14.8993 21.1735 14.8993 20.5666C14.8993 19.9596 15.3931 19.4659 16 19.4659C16.6069 19.4659 17.1007 19.9596 17.1007 20.5666C17.1007 21.1735 16.6069 21.6673 16 21.6673Z" fill="white"/>
</g>
<defs>
<clipPath id="clip0_93_7">
<rect width="32" height="32" fill="white"/>
</clipPath>
</defs>
</svg>
