<svg width="80" height="80" viewBox="0 0 80 80" fill="none" xmlns="http://www.w3.org/2000/svg">
<path d="M14.6194 8.63599C11.7047 8.63599 9.3335 11.0065 9.3335 13.9199C9.3335 16.8333 11.7047 19.2038 14.6194 19.2038C17.5365 19.2038 19.9097 16.8333 19.9097 13.9199C19.9097 11.0065 17.5365 8.63599 14.6194 8.63599ZM14.6194 16.0526C13.4424 16.0526 12.4849 15.0958 12.4849 13.9199C12.4849 12.744 13.4424 11.7874 14.6194 11.7874C15.7988 11.7874 16.7585 12.7441 16.7585 13.9201C16.7585 15.096 15.7988 16.0526 14.6194 16.0526Z" fill="url(#paint0_linear_163_628)"/>
<path d="M60.8383 8.63599H46.865C43.9503 8.63599 41.5791 11.0065 41.5791 13.9199C41.5791 16.8333 43.9503 19.2038 46.865 19.2038H60.8383C63.753 19.2038 66.1242 16.8333 66.1242 13.9199C66.1242 11.0065 63.753 8.63599 60.8383 8.63599ZM60.8383 16.0526H46.865C45.688 16.0526 44.7305 15.0958 44.7305 13.9199C44.7305 12.744 45.6882 11.7872 46.865 11.7872H60.8383C62.0153 11.7872 62.9728 12.744 62.9728 13.9199C62.9728 15.0958 62.0153 16.0526 60.8383 16.0526Z" fill="url(#paint1_linear_163_628)"/>
<path d="M28.3182 8.63599C25.4035 8.63599 23.0322 11.0065 23.0322 13.9199C23.0322 16.8333 25.4035 19.2038 28.3182 19.2038C31.2352 19.2038 33.6085 16.8333 33.6085 13.9199C33.6085 11.0065 31.2352 8.63599 28.3182 8.63599ZM28.3182 16.0526C27.1411 16.0526 26.1836 15.0958 26.1836 13.9199C26.1836 12.744 27.1413 11.7872 28.3182 11.7872C29.4975 11.7872 30.4572 12.744 30.4572 13.9199C30.4572 15.0958 29.4975 16.0526 28.3182 16.0526Z" fill="url(#paint2_linear_163_628)"/>
<path d="M25.7488 34.7568C24.9027 34.5541 24.0523 35.0765 23.8501 35.923L20.7242 49.004C20.522 49.8504 21.044 50.7005 21.8904 50.9027C22.0135 50.9321 22.1368 50.9463 22.2581 50.9463C22.9704 50.9463 23.6163 50.4597 23.7892 49.7365L26.9151 36.6555C27.1174 35.8091 26.5952 34.9591 25.7488 34.7568Z" fill="url(#paint3_linear_163_628)"/>
<path d="M31.5336 49.3656C31.8339 49.6331 32.2083 49.7646 32.5811 49.7646C33.015 49.7646 33.4471 49.5865 33.7585 49.237L38.1769 44.277C38.906 43.4654 38.906 42.1945 38.1814 41.3881L33.7583 36.4229C33.1793 35.7729 32.1832 35.7157 31.5336 36.2943C30.8836 36.8732 30.8261 37.8693 31.405 38.519L35.2452 42.8298L31.405 47.1407C30.8263 47.7907 30.8838 48.7868 31.5336 49.3656Z" fill="url(#paint4_linear_163_628)"/>
<path d="M16.1058 36.2943C15.4558 35.7154 14.46 35.7733 13.8811 36.4229L9.46317 41.3824C8.73317 42.1941 8.73317 43.4657 9.45817 44.2718L13.8813 49.2369C14.1927 49.5866 14.6246 49.7646 15.0586 49.7646C15.4315 49.7646 15.806 49.633 16.1061 49.3655C16.7561 48.7866 16.8136 47.7905 16.2347 47.1408L12.3946 42.8301L16.2347 38.5191C16.8133 37.8691 16.7558 36.873 16.1058 36.2943Z" fill="url(#paint5_linear_163_628)"/>
<path d="M76.4673 53.0518H75.8823C75.5759 52.0593 75.1789 51.1011 74.6945 50.1855L75.112 49.7666C75.7787 49.104 76.1467 48.2191 76.1481 47.275C76.1495 46.3288 75.7828 45.4404 75.1153 44.773L74.3019 43.96V10.3975C74.3019 5.6977 70.9853 1.87427 66.9084 1.87427H7.39344C3.31656 1.87427 0 5.6977 0 10.3975V54.4371C0 59.1369 3.31656 62.9604 7.39344 62.9604H16.6381C17.5083 62.9604 18.2137 62.2549 18.2137 61.3847C18.2137 60.5146 17.5083 59.8091 16.6381 59.8091H7.39344C5.09406 59.8091 3.15141 57.349 3.15141 54.4372V25.8507H71.1503V41.7733C70.9708 41.7457 70.7889 41.7276 70.6037 41.7276C70.6019 41.7276 70.6 41.7276 70.5983 41.7276C69.6542 41.7291 68.7694 42.0966 68.1119 42.7577L67.6859 43.1818C66.7511 42.6879 65.7775 42.2861 64.7736 41.9794V41.4182C64.7736 39.4707 63.1889 37.8865 61.2409 37.8865H58.3895C56.4441 37.8865 54.8614 39.4707 54.8614 41.4182V42.0179C53.8764 42.3274 52.9253 42.7257 52.0162 43.2094L51.6081 42.8026C50.9453 42.1365 50.0603 41.7686 49.1162 41.7672C49.1145 41.7672 49.1128 41.7672 49.1109 41.7672C48.1667 41.7672 47.2802 42.1336 46.6141 42.7993L44.5995 44.8129C43.932 45.48 43.5653 46.3686 43.5667 47.3147C43.5681 48.2588 43.9359 49.1436 44.5976 49.8011L45.0328 50.2375C44.5605 51.1391 44.1725 52.0796 43.8723 53.0515H43.2739C41.3283 53.0515 39.7456 54.6336 39.7456 56.5786V59.4329C39.7456 59.5597 39.7527 59.685 39.7658 59.8085H30.5978C29.7277 59.8085 29.0222 60.514 29.0222 61.3841C29.0222 62.2543 29.7277 62.9597 30.5978 62.9597H43.2737H43.8783C44.183 63.9408 44.5769 64.8888 45.0573 65.7963L44.6316 66.2202C43.2608 67.5983 43.262 69.8357 44.6348 71.2074L46.6505 73.2222C47.3133 73.8883 48.1983 74.2561 49.1423 74.2575H49.1475C50.0919 74.2575 50.9784 73.8911 51.6445 73.2254L52.0666 72.8036C52.9822 73.2863 53.9342 73.6807 54.9142 73.9836V74.5935C54.9142 76.541 56.4969 78.1252 58.4425 78.1252H61.2983C63.2437 78.1252 64.8264 76.541 64.8264 74.5935V73.9874C65.8156 73.6822 66.7716 73.2863 67.6861 72.8035L68.1062 73.2221C68.7689 73.8883 69.6537 74.256 70.5978 74.2575H70.6033C71.5475 74.2575 72.4341 73.8911 73.1014 73.2243L75.1116 71.2107C75.7783 70.548 76.1462 69.6632 76.1477 68.7191C76.1491 67.7729 75.7823 66.8844 75.1147 66.2171L74.6942 65.7968C75.1737 64.8885 75.5673 63.9399 75.8716 62.9599H76.467C78.415 62.9599 79.9997 61.3777 79.9997 59.4329V56.5786C80 54.634 78.4153 53.0518 76.4673 53.0518ZM3.15141 22.6993V10.3975C3.15141 7.48583 5.09406 5.02567 7.39344 5.02567H66.9084C69.2078 5.02567 71.1505 7.48583 71.1505 10.3975V22.6994H3.15141V22.6993ZM76.8486 59.4332C76.8486 59.6333 76.6705 59.8088 76.4672 59.8088H74.6653C73.9306 59.8088 73.2934 60.3165 73.1294 61.0326C72.7891 62.5177 72.2045 63.9261 71.3919 65.2191C71.0005 65.8418 71.0919 66.6524 71.6122 67.1722L72.8872 68.4465C72.9825 68.5418 72.9966 68.6555 72.9966 68.7149C72.9964 68.7858 72.978 68.8888 72.8859 68.98L70.8728 70.9968C70.7773 71.0921 70.6634 71.1065 70.6034 71.1065C70.6033 71.1065 70.6031 71.1065 70.6031 71.1065C70.5316 71.1065 70.4283 71.0879 70.3359 70.9949L69.0562 69.7205C68.5358 69.2022 67.7267 69.1124 67.1053 69.503C65.8105 70.3176 64.3961 70.903 62.9012 71.2432C62.1842 71.4066 61.6753 72.0441 61.6753 72.7797V74.594C61.6753 74.7965 61.4992 74.9743 61.2986 74.9743H58.4428C58.242 74.9743 58.0659 74.7966 58.0659 74.594V72.7752C58.0659 72.039 57.5559 71.4007 56.8378 71.2383C55.362 70.9046 53.9502 70.32 52.6417 69.5013C52.3839 69.3399 52.0942 69.2611 51.8062 69.2611C51.3992 69.2611 50.9958 69.4185 50.6919 69.7225L49.417 70.9968C49.3216 71.0921 49.2077 71.1065 49.1477 71.1065C49.1475 71.1065 49.1473 71.1065 49.1472 71.1065C49.0758 71.1065 48.9723 71.0879 48.8819 70.9969L46.863 68.979C46.7216 68.8377 46.7231 68.5874 46.8611 68.4486L48.1406 67.1743C48.6634 66.6536 48.7548 65.8402 48.3609 65.2165C47.547 63.9277 46.9617 62.5202 46.6211 61.033C46.457 60.3169 45.8198 59.8091 45.085 59.8091H43.2741C43.0698 59.8091 42.8972 59.6371 42.8972 59.4335V56.5793C42.8972 56.3757 43.0698 56.2035 43.2741 56.2035H45.0805C45.8159 56.2035 46.4537 55.6946 46.617 54.9775C46.9533 53.4999 47.5311 52.0982 48.3344 50.811C48.7222 50.1896 48.6306 49.3829 48.1133 48.8641L46.8242 47.5713C46.7367 47.4844 46.7183 47.3815 46.7181 47.3105C46.7181 47.2511 46.7322 47.1374 46.8275 47.0422L48.8419 45.0288C48.9373 44.9335 49.0512 44.9191 49.1112 44.9191H49.1117C49.1831 44.9193 49.2866 44.9377 49.3789 45.0307L50.6495 46.2963C51.1716 46.8161 51.9836 46.9052 52.6052 46.5108C53.8927 45.6946 55.3028 45.1033 56.7962 44.7538C57.5087 44.5871 58.0127 43.9515 58.0127 43.2196V41.4186C58.0127 41.2125 58.1852 41.0383 58.3894 41.0383H61.2408C61.4475 41.0383 61.6222 41.2125 61.6222 41.4186V43.193C61.6222 43.9313 62.1347 44.5705 62.8555 44.731C64.3547 45.0649 65.785 45.6546 67.1067 46.4838C67.7278 46.8732 68.5361 46.7832 69.0561 46.2654L70.3409 44.9857C70.4281 44.898 70.5314 44.8796 70.6028 44.8794H70.6033C70.6633 44.8794 70.7772 44.8938 70.8725 44.9891L72.887 47.0024C72.9823 47.0977 72.9964 47.2115 72.9964 47.2708C72.9962 47.3418 72.9778 47.4447 72.8851 47.5368L71.61 48.8157C71.0908 49.3365 71.0008 50.1471 71.3931 50.769C72.2089 52.0622 72.7958 53.4785 73.1376 54.9782C73.3011 55.695 73.9386 56.2036 74.6741 56.2036H76.4672C76.6703 56.2036 76.8486 56.3794 76.8486 56.5794V59.4332Z" fill="url(#paint6_linear_163_628)"/>
<path d="M59.873 48.3831C54.5633 48.3831 50.2437 52.7009 50.2437 58.0082C50.2437 63.3131 54.5633 67.629 59.873 67.629C65.1804 67.629 69.498 63.3132 69.498 58.0082C69.498 52.701 65.1804 48.3831 59.873 48.3831ZM59.873 64.4776C56.3012 64.4776 53.3951 61.5754 53.3951 58.0082C53.3951 54.4385 56.3012 51.5345 59.873 51.5345C63.4426 51.5345 66.3466 54.4385 66.3466 58.0082C66.3466 61.5754 63.4424 64.4776 59.873 64.4776Z" fill="url(#paint7_linear_163_628)"/>
<path d="M23.6647 59.8091H23.6337C22.7636 59.8091 22.0581 60.5145 22.0581 61.3847C22.0581 62.2549 22.7636 62.9603 23.6337 62.9603H23.6647C24.5348 62.9603 25.2403 62.2549 25.2403 61.3847C25.2403 60.5145 24.5348 59.8091 23.6647 59.8091Z" fill="url(#paint8_linear_163_628)"/>
<defs>
<linearGradient id="paint0_linear_163_628" x1="14.6216" y1="8.63599" x2="14.6216" y2="19.2038" gradientUnits="userSpaceOnUse">
<stop stop-color="#FD1E43"/>
<stop offset="1" stop-color="#F4197D"/>
</linearGradient>
<linearGradient id="paint1_linear_163_628" x1="53.8517" y1="8.63599" x2="53.8517" y2="19.2038" gradientUnits="userSpaceOnUse">
<stop stop-color="#FD1E43"/>
<stop offset="1" stop-color="#F4197D"/>
</linearGradient>
<linearGradient id="paint2_linear_163_628" x1="28.3204" y1="8.63599" x2="28.3204" y2="19.2038" gradientUnits="userSpaceOnUse">
<stop stop-color="#FD1E43"/>
<stop offset="1" stop-color="#F4197D"/>
</linearGradient>
<linearGradient id="paint3_linear_163_628" x1="23.8196" y1="34.7131" x2="23.8196" y2="50.9463" gradientUnits="userSpaceOnUse">
<stop stop-color="#FD1E43"/>
<stop offset="1" stop-color="#F4197D"/>
</linearGradient>
<linearGradient id="paint4_linear_163_628" x1="34.8651" y1="35.8953" x2="34.8651" y2="49.7646" gradientUnits="userSpaceOnUse">
<stop stop-color="#FD1E43"/>
<stop offset="1" stop-color="#F4197D"/>
</linearGradient>
<linearGradient id="paint5_linear_163_628" x1="12.7745" y1="35.8953" x2="12.7745" y2="49.7646" gradientUnits="userSpaceOnUse">
<stop stop-color="#FD1E43"/>
<stop offset="1" stop-color="#F4197D"/>
</linearGradient>
<linearGradient id="paint6_linear_163_628" x1="39.9998" y1="1.87427" x2="39.9998" y2="78.1252" gradientUnits="userSpaceOnUse">
<stop stop-color="#FD1E43"/>
<stop offset="1" stop-color="#F4197D"/>
</linearGradient>
<linearGradient id="paint7_linear_163_628" x1="59.8708" y1="48.3831" x2="59.8708" y2="67.629" gradientUnits="userSpaceOnUse">
<stop stop-color="#FD1E43"/>
<stop offset="1" stop-color="#F4197D"/>
</linearGradient>
<linearGradient id="paint8_linear_163_628" x1="23.6492" y1="59.8091" x2="23.6492" y2="62.9603" gradientUnits="userSpaceOnUse">
<stop stop-color="#FD1E43"/>
<stop offset="1" stop-color="#F4197D"/>
</linearGradient>
</defs>
</svg>
