<svg width="80" height="80" viewBox="0 0 80 80" fill="none" xmlns="http://www.w3.org/2000/svg">
<path d="M5.5071 19.0517C5.34818 17.2491 5.45313 15.4341 5.81893 13.6621C6.30817 11.4552 7.26915 9.62323 8.6744 8.21848C10.6433 6.24803 13.4124 5.16811 16.894 5.0082C18.5806 4.94473 20.2692 5.06017 21.9308 5.35152L22.3736 2.83436C20.5301 2.51104 18.6571 2.3836 16.7871 2.45507C12.6383 2.64646 9.30057 3.97725 6.86787 6.41195C5.11081 8.16851 3.91745 10.4243 3.32227 13.1194C3.32127 13.1244 3.31977 13.1299 3.31877 13.1348C2.9 15.1538 2.78056 17.2227 2.96196 19.2761L5.5071 19.0517Z" fill="url(#paint0_linear_163_600)"/>
<path d="M11.1112 35.7482C10.3416 34.344 9.636 32.9328 9.01333 31.5525L6.68408 32.6034C7.33373 34.0432 8.06934 35.5149 8.87091 36.9766L11.1112 35.7482Z" fill="url(#paint1_linear_163_600)"/>
<path d="M3.70508 23.989C4.02541 25.3578 4.4147 26.7101 4.87145 28.0399L7.28966 27.2138C6.86089 25.9655 6.49458 24.6967 6.19424 23.4124L3.70508 23.989Z" fill="url(#paint2_linear_163_600)"/>
<path d="M21.0889 49.8203C20.9775 49.6928 20.8665 49.5664 20.7561 49.439L18.8276 51.1146C18.9406 51.245 19.054 51.3754 19.169 51.5059C19.8176 52.2445 20.4927 52.9891 21.1759 53.7197C21.4822 54.0465 21.7915 54.3728 22.1044 54.6976L23.9459 52.9261C23.6411 52.6098 23.3397 52.2924 23.0424 51.9741C22.3767 51.263 21.7201 50.5379 21.0889 49.8203Z" fill="url(#paint3_linear_163_600)"/>
<path d="M15.7407 47.3601L17.7576 45.792C17.5722 45.5531 17.3888 45.3143 17.2069 45.0744C16.4288 44.0509 15.6757 43.012 14.9691 41.9871L12.8652 43.4373C13.5948 44.4952 14.3709 45.5661 15.1725 46.62C15.3594 46.8674 15.5493 47.1138 15.7407 47.3601Z" fill="url(#paint4_linear_163_600)"/>
<path d="M24.2778 56.8856C26.692 59.2414 29.2322 61.4642 31.8872 63.5436C35.4883 66.3775 39.3318 68.8892 43.3736 71.048C45.7343 72.3048 48.181 73.3933 50.6947 74.3058L48.3609 74.9739L49.0635 77.4306L55.597 75.5611C56.2752 75.3672 56.6675 74.6596 56.4736 73.9809L54.771 68.0301L52.3138 68.7328L53.3962 72.5132C50.3453 71.5478 47.3914 70.3019 44.5719 68.7912C40.6635 66.7034 36.947 64.2747 33.4654 61.5341C30.8823 59.5112 28.4106 57.3489 26.0619 55.0576L24.2778 56.8856Z" fill="url(#paint5_linear_163_600)"/>
<path d="M76.6244 57.3033C76.1027 54.044 75.0247 50.5379 73.4201 46.8823L71.0803 47.9093C72.5975 51.3659 73.6135 54.6632 74.1007 57.7065C75.0152 63.4205 74.0108 67.9276 71.1968 70.7426C69.803 72.1363 67.9905 73.0918 65.8091 73.5835C64.0456 73.9803 62.0461 74.0748 59.8648 73.8659C59.3271 73.8144 58.7724 73.743 58.2157 73.655L57.8169 76.1787C58.4236 76.2746 59.0307 76.3521 59.6209 76.409C60.452 76.4885 61.2616 76.5285 62.0496 76.5285C63.5024 76.5375 64.9516 76.385 66.3708 76.0757C69.0314 75.4755 71.2627 74.2892 73.0033 72.5486C76.421 69.1309 77.6728 63.8597 76.6244 57.3033Z" fill="url(#paint6_linear_163_600)"/>
<path d="M70.4303 40.9656L68.2104 42.2309C68.8256 43.3103 69.4058 44.3977 69.935 45.4627L72.2238 44.3268C71.6736 43.2174 71.0704 42.087 70.4303 40.9656Z" fill="url(#paint7_linear_163_600)"/>
<path d="M64.4996 32.084L62.4697 33.6362C63.4222 34.882 64.3517 36.1688 65.2337 37.4626L67.3456 36.0239C66.4371 34.6916 65.4796 33.3658 64.4996 32.084Z" fill="url(#paint8_linear_163_600)"/>
<path d="M58.1825 24.6992L56.335 26.4633C57.4164 27.5962 58.4813 28.775 59.4998 29.9659L61.4417 28.3053C60.3928 27.0794 59.2964 25.8661 58.1825 24.6992Z" fill="url(#paint9_linear_163_600)"/>
<path d="M26.521 11.4211L29.0197 10.8869L28.1946 7.02744C30.5394 7.859 32.8211 8.86096 35.0205 10.0238C38.8779 12.0607 42.5499 14.4305 45.9936 17.108C47.6172 18.3609 49.2528 19.7206 50.8545 21.1484C51.7425 21.9414 52.637 22.772 53.5125 23.6175C53.8918 23.9838 54.2791 24.3651 54.6649 24.7499L56.4715 22.9434C56.0757 22.5481 55.6779 22.1563 55.2871 21.7795C54.3886 20.911 53.4696 20.0575 52.5566 19.2414C50.9094 17.7737 49.2268 16.3749 47.5592 15.0881C45.9351 13.8253 44.2535 12.6289 42.5284 11.4965C43.5084 10.9438 44.4929 10.4206 45.4569 9.94138L44.32 7.65311C43.1736 8.2218 42.0032 8.84846 40.8418 9.51411L41.6534 10.9303C39.8813 9.80145 38.0688 8.74652 36.2148 7.76455C34.5632 6.89251 32.8686 6.10744 31.136 5.41081L33.3873 4.93007L32.8546 2.43091L26.2097 3.85115C25.5195 3.99857 25.0798 4.6772 25.2272 5.36733L26.521 11.4211Z" fill="url(#paint10_linear_163_600)"/>
<path d="M2.82798 57.5032C2.50466 59.3467 2.37722 61.2197 2.44919 63.0897C2.63958 67.238 3.97037 70.5752 6.40557 73.0094C8.16213 74.7664 10.4194 75.9588 13.113 76.5535C13.118 76.554 13.1235 76.5555 13.1295 76.5565C14.5377 76.8488 15.9734 76.9962 17.4127 76.9962C18.0318 76.9962 18.651 76.9692 19.2697 76.9148L19.0453 74.3686C17.2428 74.5286 15.4272 74.4231 13.6557 74.0563C11.4484 73.5686 9.61685 72.6086 8.2121 71.2028C6.24216 69.2329 5.16173 66.4634 5.00182 62.9827C4.93835 61.2956 5.05279 59.6075 5.34514 57.9449L2.82798 57.5032Z" fill="url(#paint11_linear_163_600)"/>
<path d="M32.5968 73.1923C34.0376 72.5431 35.5088 71.8065 36.9695 71.0059L35.7421 68.7656C34.3384 69.5347 32.9267 70.2408 31.5459 70.863L32.5968 73.1923Z" fill="url(#paint12_linear_163_600)"/>
<path d="M23.9825 76.1718C25.3517 75.8514 26.704 75.4621 28.0333 75.0054L27.2072 72.5867C25.9594 73.0159 24.6906 73.3812 23.4058 73.6826L23.9825 76.1718Z" fill="url(#paint13_linear_163_600)"/>
<path d="M49.4331 59.1192L51.1077 61.0492C51.2386 60.9362 51.3691 60.8223 51.5 60.7074C52.2391 60.0577 52.9842 59.3816 53.7138 58.7004C54.0406 58.3941 54.3669 58.0848 54.6922 57.7714L52.9202 55.9304C52.6039 56.2358 52.2866 56.5361 51.9677 56.8339C51.2576 57.4981 50.533 58.1552 49.8134 58.7869C49.687 58.8983 49.5605 59.0093 49.4331 59.1192Z" fill="url(#paint14_linear_163_600)"/>
<path d="M41.981 64.9062L43.4312 67.0106C44.4891 66.282 45.5601 65.5054 46.6145 64.7038C46.8614 64.5164 47.1078 64.327 47.3541 64.1356L45.7859 62.1177C45.5476 62.3031 45.3082 62.487 45.0688 62.6694C44.0449 63.4475 43.0069 64.2001 41.981 64.9062Z" fill="url(#paint15_linear_163_600)"/>
<path d="M57.7007 5.77499C63.4141 4.86148 67.9217 5.86544 70.7367 8.67993C72.1294 10.0727 73.0854 11.8857 73.5776 14.067C73.9739 15.8311 74.0694 17.831 73.8595 20.0119C73.8085 20.5486 73.738 21.1028 73.6491 21.6605L76.1727 22.0598C76.2687 21.4511 76.3461 20.8439 76.4031 20.2557C76.638 17.8055 76.5261 15.5348 76.0698 13.5058C75.4701 10.8453 74.2838 8.61297 72.5432 6.8724C69.125 3.45473 63.8524 2.2024 57.2974 3.25184C54.0396 3.77306 50.5325 4.85148 46.8765 6.45562L47.9034 8.79587C51.3601 7.27868 54.6563 6.26223 57.7007 5.77499Z" fill="url(#paint16_linear_163_600)"/>
<path d="M29.9591 20.376L28.298 18.4346C27.0721 19.4835 25.8593 20.5799 24.6924 21.6923L26.4569 23.5408C27.5903 22.4589 28.7692 21.394 29.9591 20.376Z" fill="url(#paint17_linear_163_600)"/>
<path d="M37.4568 14.6431L36.017 12.5312C34.6847 13.4403 33.3589 14.3978 32.0776 15.3772L33.6298 17.4071C34.8741 16.4551 36.1619 15.5251 37.4568 14.6431Z" fill="url(#paint18_linear_163_600)"/>
<path d="M75.5548 24.2801C75.3609 23.6015 74.6533 23.2092 73.9752 23.4031L68.0238 25.1062L68.7265 27.5628L72.5074 26.4809C71.5415 29.5313 70.2951 32.4857 68.7844 35.3052C66.6966 39.2136 64.2679 42.9301 61.5273 46.4117C59.5039 48.9948 57.3421 51.466 55.0503 53.8148L56.8788 55.5993C59.2346 53.1851 61.4569 50.645 63.5367 47.9899C66.3707 44.3893 68.8824 40.5454 71.0412 36.5035C72.2976 34.1423 73.3865 31.6966 74.299 29.1825L74.9671 31.5162L77.4238 30.8136L75.5548 24.2801Z" fill="url(#paint19_linear_163_600)"/>
<path d="M5.09389 54.6783C5.18334 54.6783 5.27329 54.6688 5.36174 54.6493L11.4145 53.356L10.8803 50.8568L7.02135 51.6824C7.85291 49.3371 8.85437 47.0559 10.0177 44.8565C12.0537 40.9986 14.4244 37.3266 17.1015 33.8829C18.3538 32.2598 19.7136 30.6242 21.1418 29.022C21.9349 28.1335 22.7654 27.2395 23.611 26.3644C23.9813 25.9811 24.3621 25.5934 24.7439 25.2116L22.9373 23.405C22.5455 23.7968 22.1537 24.1946 21.7735 24.5889C20.9044 25.4884 20.0509 26.4069 19.2348 27.3209C17.7656 28.9675 16.3678 30.6506 15.0815 32.3178C12.314 35.8788 9.86333 39.6738 7.75846 43.6622C6.88593 45.3128 6.10035 47.0079 5.40472 48.741L4.92348 46.4882L2.42432 47.0219L3.84456 53.6668C3.97049 54.2565 4.49121 54.6773 5.09389 54.6783Z" fill="url(#paint20_linear_163_600)"/>
<path d="M28.9048 29.8076V50.0757C28.9048 51.1571 29.5115 52.6798 32.5878 53.7927C34.5797 54.5133 37.1839 54.9106 39.9494 54.9106H40.0483C41.646 54.9106 43.2401 54.7647 44.8113 54.4754C48.7941 53.7113 51.1034 52.1076 51.1034 50.0757V29.8076C51.1034 28.7257 50.4273 27.204 47.3504 26.0901C45.358 25.3695 42.7189 24.9722 39.9499 24.9722C37.1799 24.9722 34.5877 25.3695 32.5953 26.0901C29.519 27.2035 28.9048 28.7257 28.9048 29.8076ZM44.333 51.9642C42.8873 52.2321 41.4201 52.363 39.9504 52.3555C37.4682 52.3555 35.1849 52.0122 33.4648 51.3905C31.7822 50.7813 31.4599 50.1707 31.4599 50.0757V46.5096C31.8232 46.702 32.2005 46.8679 32.5878 47.0054C34.5797 47.7265 37.1839 48.1233 39.9544 48.1233C42.7254 48.1233 45.369 47.7265 47.3609 47.0054C47.7977 46.8475 48.069 46.681 48.5483 46.5086V50.0752C48.5483 50.3151 47.5138 51.354 44.333 51.9642ZM48.5483 43.2879C48.5483 43.3838 48.164 43.994 46.4819 44.6032C44.7613 45.2258 42.432 45.5681 39.9499 45.5681C37.4682 45.5681 35.1849 45.2258 33.4648 44.6032C31.7822 43.994 31.4599 43.3833 31.4599 43.2879V39.7687C31.8232 39.9616 32.2005 40.1276 32.5878 40.265C34.5797 40.9861 37.1839 41.3829 39.9544 41.3829C42.7254 41.3829 45.369 40.9861 47.3609 40.265C47.7977 40.1071 48.069 39.9406 48.5483 39.7687V43.2879ZM46.4819 37.8623C44.7613 38.4849 42.432 38.8272 39.9499 38.8272C37.4682 38.8272 35.1849 38.4849 33.4648 37.8623C31.7822 37.2536 31.4599 36.6429 31.4599 36.548V33.0279C31.8237 33.2203 32.2005 33.3862 32.5878 33.5241C34.5802 34.2452 37.1844 34.642 39.9544 34.642C42.7244 34.642 45.3685 34.2447 47.3609 33.5241C47.7977 33.3657 48.069 33.1993 48.5483 33.0279V36.548C48.5483 36.6429 48.164 37.2536 46.4819 37.8623ZM33.4184 28.4928C35.1389 27.8696 37.4532 27.5273 39.9344 27.5273C42.415 27.5273 44.7298 27.8696 46.4504 28.4928C48.132 29.102 48.4863 29.7121 48.4863 29.8076C48.4863 29.902 48.132 30.5122 46.4504 31.1214C44.7298 31.7445 42.415 32.0869 39.9344 32.0869C37.4532 32.0869 35.1389 31.7435 33.4184 31.1214C31.7358 30.5122 31.382 29.902 31.382 29.8076C31.382 29.7121 31.7363 29.102 33.4189 28.4928H33.4184Z" fill="url(#paint21_linear_163_600)"/>
<defs>
<linearGradient id="paint0_linear_163_600" x1="12.6267" y1="2.43579" x2="12.6267" y2="19.2761" gradientUnits="userSpaceOnUse">
<stop stop-color="#FD1E43"/>
<stop offset="1" stop-color="#F4197D"/>
</linearGradient>
<linearGradient id="paint1_linear_163_600" x1="8.89765" y1="31.5525" x2="8.89765" y2="36.9766" gradientUnits="userSpaceOnUse">
<stop stop-color="#FD1E43"/>
<stop offset="1" stop-color="#F4197D"/>
</linearGradient>
<linearGradient id="paint2_linear_163_600" x1="5.49737" y1="23.4124" x2="5.49737" y2="28.0399" gradientUnits="userSpaceOnUse">
<stop stop-color="#FD1E43"/>
<stop offset="1" stop-color="#F4197D"/>
</linearGradient>
<linearGradient id="paint3_linear_163_600" x1="21.3868" y1="49.439" x2="21.3868" y2="54.6976" gradientUnits="userSpaceOnUse">
<stop stop-color="#FD1E43"/>
<stop offset="1" stop-color="#F4197D"/>
</linearGradient>
<linearGradient id="paint4_linear_163_600" x1="15.3114" y1="41.9871" x2="15.3114" y2="47.3601" gradientUnits="userSpaceOnUse">
<stop stop-color="#FD1E43"/>
<stop offset="1" stop-color="#F4197D"/>
</linearGradient>
<linearGradient id="paint5_linear_163_600" x1="40.4005" y1="55.0576" x2="40.4005" y2="77.4306" gradientUnits="userSpaceOnUse">
<stop stop-color="#FD1E43"/>
<stop offset="1" stop-color="#F4197D"/>
</linearGradient>
<linearGradient id="paint6_linear_163_600" x1="67.4006" y1="46.8823" x2="67.4006" y2="76.5288" gradientUnits="userSpaceOnUse">
<stop stop-color="#FD1E43"/>
<stop offset="1" stop-color="#F4197D"/>
</linearGradient>
<linearGradient id="paint7_linear_163_600" x1="70.2171" y1="40.9656" x2="70.2171" y2="45.4627" gradientUnits="userSpaceOnUse">
<stop stop-color="#FD1E43"/>
<stop offset="1" stop-color="#F4197D"/>
</linearGradient>
<linearGradient id="paint8_linear_163_600" x1="64.9077" y1="32.084" x2="64.9077" y2="37.4626" gradientUnits="userSpaceOnUse">
<stop stop-color="#FD1E43"/>
<stop offset="1" stop-color="#F4197D"/>
</linearGradient>
<linearGradient id="paint9_linear_163_600" x1="58.8883" y1="24.6992" x2="58.8883" y2="29.9659" gradientUnits="userSpaceOnUse">
<stop stop-color="#FD1E43"/>
<stop offset="1" stop-color="#F4197D"/>
</linearGradient>
<linearGradient id="paint10_linear_163_600" x1="40.8351" y1="2.43091" x2="40.8351" y2="24.7499" gradientUnits="userSpaceOnUse">
<stop stop-color="#FD1E43"/>
<stop offset="1" stop-color="#F4197D"/>
</linearGradient>
<linearGradient id="paint11_linear_163_600" x1="10.8497" y1="57.5032" x2="10.8497" y2="76.9962" gradientUnits="userSpaceOnUse">
<stop stop-color="#FD1E43"/>
<stop offset="1" stop-color="#F4197D"/>
</linearGradient>
<linearGradient id="paint12_linear_163_600" x1="34.2577" y1="68.7656" x2="34.2577" y2="73.1923" gradientUnits="userSpaceOnUse">
<stop stop-color="#FD1E43"/>
<stop offset="1" stop-color="#F4197D"/>
</linearGradient>
<linearGradient id="paint13_linear_163_600" x1="25.7195" y1="72.5867" x2="25.7195" y2="76.1718" gradientUnits="userSpaceOnUse">
<stop stop-color="#FD1E43"/>
<stop offset="1" stop-color="#F4197D"/>
</linearGradient>
<linearGradient id="paint14_linear_163_600" x1="52.0627" y1="55.9304" x2="52.0627" y2="61.0492" gradientUnits="userSpaceOnUse">
<stop stop-color="#FD1E43"/>
<stop offset="1" stop-color="#F4197D"/>
</linearGradient>
<linearGradient id="paint15_linear_163_600" x1="44.6675" y1="62.1177" x2="44.6675" y2="67.0106" gradientUnits="userSpaceOnUse">
<stop stop-color="#FD1E43"/>
<stop offset="1" stop-color="#F4197D"/>
</linearGradient>
<linearGradient id="paint16_linear_163_600" x1="61.6995" y1="2.89136" x2="61.6995" y2="22.0598" gradientUnits="userSpaceOnUse">
<stop stop-color="#FD1E43"/>
<stop offset="1" stop-color="#F4197D"/>
</linearGradient>
<linearGradient id="paint17_linear_163_600" x1="27.3257" y1="18.4346" x2="27.3257" y2="23.5408" gradientUnits="userSpaceOnUse">
<stop stop-color="#FD1E43"/>
<stop offset="1" stop-color="#F4197D"/>
</linearGradient>
<linearGradient id="paint18_linear_163_600" x1="34.7672" y1="12.5312" x2="34.7672" y2="17.4071" gradientUnits="userSpaceOnUse">
<stop stop-color="#FD1E43"/>
<stop offset="1" stop-color="#F4197D"/>
</linearGradient>
<linearGradient id="paint19_linear_163_600" x1="66.2371" y1="23.3535" x2="66.2371" y2="55.5993" gradientUnits="userSpaceOnUse">
<stop stop-color="#FD1E43"/>
<stop offset="1" stop-color="#F4197D"/>
</linearGradient>
<linearGradient id="paint20_linear_163_600" x1="13.5841" y1="23.405" x2="13.5841" y2="54.6783" gradientUnits="userSpaceOnUse">
<stop stop-color="#FD1E43"/>
<stop offset="1" stop-color="#F4197D"/>
</linearGradient>
<linearGradient id="paint21_linear_163_600" x1="40.0041" y1="24.9722" x2="40.0041" y2="54.9106" gradientUnits="userSpaceOnUse">
<stop stop-color="#FD1E43"/>
<stop offset="1" stop-color="#F4197D"/>
</linearGradient>
</defs>
</svg>
