<svg width="50" height="50" viewBox="0 0 50 50" fill="none" xmlns="http://www.w3.org/2000/svg">
<path d="M3.44191 11.9074C3.34258 10.7808 3.40817 9.64642 3.6368 8.53888C3.94258 7.15962 4.54319 6.01461 5.42147 5.13664C6.65206 3.90511 8.3827 3.23016 10.5587 3.13022C11.6128 3.09055 12.6682 3.1627 13.7067 3.34479L13.9834 1.77157C12.8313 1.56949 11.6606 1.48984 10.4919 1.53451C7.89889 1.65413 5.81282 2.48587 4.29239 4.00756C3.19423 5.10541 2.44838 6.51528 2.07639 8.19969C2.07576 8.20281 2.07483 8.20625 2.0742 8.20937C1.81247 9.4712 1.73782 10.7643 1.8512 12.0476L3.44191 11.9074Z" fill="#1EA69A"/>
<path d="M6.9444 22.3428C6.46341 21.4651 6.02239 20.5831 5.63323 19.7205L4.17744 20.3773C4.58348 21.2771 5.04323 22.1969 5.54421 23.1105L6.9444 22.3428Z" fill="#1EA69A"/>
<path d="M2.31563 14.9932C2.51583 15.8487 2.75914 16.6939 3.04461 17.525L4.55599 17.0087C4.28801 16.2285 4.05907 15.4355 3.87136 14.6328L2.31563 14.9932Z" fill="#1EA69A"/>
<path d="M13.1807 31.1377C13.1111 31.0581 13.0418 30.9791 12.9727 30.8994L11.7674 31.9467C11.838 32.0282 11.9089 32.1097 11.9808 32.1912C12.3862 32.6528 12.8081 33.1182 13.2351 33.5749C13.4266 33.7791 13.6199 33.9831 13.8154 34.1861L14.9664 33.0789C14.7758 32.8812 14.5875 32.6828 14.4017 32.4839C13.9856 32.0394 13.5752 31.5862 13.1807 31.1377Z" fill="#1EA69A"/>
<path d="M9.83785 29.6001L11.0984 28.62C10.9825 28.4707 10.8679 28.3214 10.7542 28.1715C10.2679 27.5319 9.79724 26.8825 9.3556 26.2419L8.04068 27.1483C8.49669 27.8095 8.98174 28.4789 9.48272 29.1376C9.59954 29.2922 9.71822 29.4461 9.83785 29.6001Z" fill="#1EA69A"/>
<path d="M15.1738 35.5534C16.6826 37.0257 18.2702 38.415 19.9297 39.7146C22.1803 41.4858 24.5825 43.0556 27.1086 44.4049C28.5841 45.1904 30.1133 45.8707 31.6843 46.441L30.2257 46.8586L30.6648 48.394L34.7483 47.2256C35.1721 47.1044 35.4173 46.6621 35.2961 46.238L34.232 42.5187L32.6962 42.9579L33.3728 45.3206C31.466 44.7172 29.6198 43.9386 27.8576 42.9944C25.4148 41.6895 23.092 40.1715 20.916 38.4587C19.3016 37.1944 17.7568 35.8429 16.2888 34.4109L15.1738 35.5534Z" fill="#1EA69A"/>
<path d="M47.8903 35.8146C47.5643 33.7776 46.8906 31.5862 45.8877 29.3015L44.4253 29.9434C45.3735 32.1038 46.0085 34.1645 46.313 36.0666C46.8846 39.6379 46.2568 42.4548 44.4981 44.2142C43.627 45.0853 42.4941 45.6824 41.1308 45.9898C40.0286 46.2378 38.7789 46.2968 37.4156 46.1662C37.0795 46.1341 36.7328 46.0894 36.3849 46.0344L36.1357 47.6117C36.5148 47.6717 36.8943 47.7201 37.2632 47.7557C37.7826 47.8054 38.2886 47.8304 38.7811 47.8304C39.6891 47.836 40.5948 47.7407 41.4819 47.5474C43.1447 47.1723 44.5393 46.4308 45.6272 45.3429C47.7632 43.2069 48.5456 39.9124 47.8903 35.8146Z" fill="#1EA69A"/>
<path d="M44.0189 25.6035L42.6315 26.3943C43.016 27.069 43.3786 27.7486 43.7094 28.4142L45.1399 27.7043C44.796 27.0109 44.419 26.3044 44.0189 25.6035Z" fill="#1EA69A"/>
<path d="M40.3122 20.0525L39.0435 21.0226C39.6388 21.8012 40.2197 22.6055 40.771 23.4141L42.0909 22.5149C41.5231 21.6822 40.9246 20.8536 40.3122 20.0525Z" fill="#1EA69A"/>
<path d="M36.3643 15.437L35.2096 16.5395C35.8855 17.2476 36.5511 17.9844 37.1876 18.7287L38.4013 17.6908C37.7457 16.9247 37.0605 16.1663 36.3643 15.437Z" fill="#1EA69A"/>
<path d="M16.5755 7.13815L18.1372 6.80426L17.6215 4.39212C19.087 4.91184 20.5131 5.53807 21.8877 6.26487C24.2986 7.53793 26.5936 9.01901 28.7459 10.6925C29.7606 11.4755 30.7829 12.3254 31.7839 13.2177C32.3389 13.7134 32.898 14.2325 33.4452 14.7609C33.6823 14.9899 33.9243 15.2282 34.1655 15.4687L35.2945 14.3396C35.0472 14.0925 34.7986 13.8477 34.5543 13.6122C33.9927 13.0693 33.4184 12.5359 32.8477 12.0258C31.8183 11.1085 30.7667 10.2343 29.7244 9.43004C28.7093 8.64078 27.6583 7.89305 26.5801 7.18531C27.1926 6.83987 27.8079 6.51286 28.4104 6.21333L27.6999 4.78316C26.9834 5.13859 26.2519 5.53026 25.526 5.94629L26.0333 6.83144C24.9257 6.12588 23.7929 5.46654 22.6341 4.85281C21.6019 4.30779 20.5428 3.81712 19.4599 3.38173L20.867 3.08126L20.534 1.51929L16.3809 2.40694C15.9496 2.49907 15.6747 2.92322 15.7669 3.35455L16.5755 7.13815Z" fill="#1EA69A"/>
<path d="M1.76749 35.9395C1.56541 37.0916 1.48577 38.2623 1.53074 39.431C1.64974 42.0237 2.48148 44.1095 4.00348 45.6308C5.10133 46.729 6.51214 47.4742 8.19561 47.8459C8.19874 47.8462 8.20217 47.8471 8.20592 47.8478C9.08607 48.0305 9.98341 48.1226 10.8829 48.1226C11.2699 48.1226 11.6569 48.1058 12.0436 48.0717L11.9033 46.4804C10.7767 46.5803 9.64202 46.5144 8.53481 46.2852C7.15523 45.9803 6.01053 45.3803 5.13256 44.5017C3.90135 43.2705 3.22608 41.5396 3.12614 39.3642C3.08647 38.3097 3.158 37.2547 3.34071 36.2156L1.76749 35.9395Z" fill="#1EA69A"/>
<path d="M20.3731 45.7452C21.2736 45.3394 22.1931 44.8791 23.1061 44.3787L22.339 42.9785C21.4616 43.4592 20.5793 43.9005 19.7163 44.2894L20.3731 45.7452Z" fill="#1EA69A"/>
<path d="M14.9892 47.6074C15.845 47.4072 16.6901 47.1639 17.5209 46.8784L17.0047 45.3667C16.2248 45.635 15.4317 45.8633 14.6287 46.0516L14.9892 47.6074Z" fill="#1EA69A"/>
<path d="M30.8956 36.9495L31.9422 38.1558C32.0241 38.0852 32.1056 38.014 32.1874 37.9421C32.6494 37.5361 33.115 37.1135 33.571 36.6878C33.7753 36.4963 33.9793 36.303 34.1826 36.1072L33.0751 34.9565C32.8774 35.1474 32.679 35.3351 32.4798 35.5212C32.0359 35.9363 31.5831 36.347 31.1333 36.7418C31.0543 36.8115 30.9753 36.8808 30.8956 36.9495Z" fill="#1EA69A"/>
<path d="M26.2381 40.5663L27.1445 41.8816C27.8057 41.4262 28.475 40.9408 29.1341 40.4398C29.2884 40.3227 29.4423 40.2043 29.5963 40.0847L28.6162 38.8235C28.4672 38.9394 28.3176 39.0543 28.168 39.1683C27.528 39.6546 26.8793 40.125 26.2381 40.5663Z" fill="#1EA69A"/>
<path d="M36.0628 3.6094C39.6337 3.03845 42.451 3.66593 44.2104 5.42499C45.0808 6.29546 45.6783 7.4286 45.986 8.79193C46.2336 9.89447 46.2933 11.1444 46.1621 12.5074C46.1303 12.8429 46.0862 13.1893 46.0306 13.5378L47.6079 13.7874C47.6679 13.407 47.7163 13.0275 47.7519 12.6599C47.8987 11.1285 47.8287 9.70925 47.5436 8.44118C47.1688 6.77832 46.4273 5.38313 45.3394 4.29528C43.2031 2.15924 39.9077 1.37653 35.8108 2.03243C33.7747 2.35819 31.5828 3.03221 29.2977 4.0348L29.9396 5.49745C32.1 4.54921 34.1601 3.91392 36.0628 3.6094Z" fill="#1EA69A"/>
<path d="M18.7244 12.7351L17.6862 11.5217C16.92 12.1773 16.162 12.8626 15.4327 13.5578L16.5355 14.7131C17.2439 14.0369 17.9807 13.3714 18.7244 12.7351Z" fill="#1EA69A"/>
<path d="M23.4106 9.15195L22.5107 7.83203C21.6781 8.40016 20.8495 8.99859 20.0486 9.61077L21.0187 10.8795C21.7964 10.2845 22.6013 9.70322 23.4106 9.15195Z" fill="#1EA69A"/>
<path d="M47.2219 15.1751C47.1007 14.7509 46.6584 14.5057 46.2346 14.6269L42.515 15.6913L42.9542 17.2268L45.3173 16.5506C44.7135 18.4571 43.9346 20.3036 42.9904 22.0657C41.6855 24.5085 40.1675 26.8313 38.4547 29.0073C37.1901 30.6218 35.8389 32.1663 34.4066 33.6342L35.5494 34.7496C37.0217 33.2407 38.4107 31.6531 39.7106 29.9937C41.4818 27.7433 43.0516 25.3409 44.4009 22.8147C45.1861 21.3389 45.8667 19.8104 46.437 18.239L46.8546 19.6976L48.39 19.2585L47.2219 15.1751Z" fill="#1EA69A"/>
<path d="M3.1836 34.174C3.23951 34.174 3.29573 34.168 3.35101 34.1558L7.13399 33.3475L6.8001 31.7855L4.38827 32.3015C4.90799 30.8357 5.53391 29.4099 6.26102 28.0354C7.53346 25.6242 9.01517 23.3291 10.6883 21.1769C11.471 20.1624 12.3209 19.1401 13.2135 18.1388C13.7092 17.5835 14.2283 17.0247 14.7568 16.4778C14.9882 16.2382 15.2262 15.9959 15.4648 15.7573L14.3358 14.6282C14.0909 14.873 13.846 15.1217 13.6083 15.3681C13.0652 15.9303 12.5317 16.5044 12.0217 17.0756C11.1034 18.1047 10.2298 19.1567 9.42588 20.1986C7.69619 22.4243 6.16451 24.7962 4.84896 27.2889C4.30363 28.3205 3.81264 29.38 3.37787 30.4631L3.0771 29.0551L1.51512 29.3887L2.40277 33.5418C2.48148 33.9103 2.80693 34.1733 3.1836 34.174Z" fill="#1EA69A"/>
<path d="M18.0656 18.6298V31.2974C18.0656 31.9733 18.4448 32.925 20.3675 33.6205C21.6125 34.0709 23.2401 34.3192 24.9685 34.3192H25.0303C26.0289 34.3192 27.0252 34.228 28.0072 34.0472C30.4965 33.5696 31.9398 32.5673 31.9398 31.2974V18.6298C31.9398 17.9536 31.5172 17.0025 29.5942 16.3064C28.3489 15.856 26.6995 15.6077 24.9688 15.6077C23.2376 15.6077 21.6175 15.856 20.3722 16.3064C18.4495 17.0022 18.0656 17.9536 18.0656 18.6298ZM27.7083 32.4777C26.8047 32.6451 25.8877 32.7269 24.9691 32.7222C23.4178 32.7222 21.9907 32.5077 20.9157 32.1191C19.8641 31.7384 19.6626 31.3567 19.6626 31.2974V29.0686C19.8897 29.1888 20.1255 29.2925 20.3675 29.3784C21.6125 29.8291 23.2401 30.0771 24.9716 30.0771C26.7035 30.0771 28.3558 29.8291 29.6007 29.3784C29.8737 29.2797 30.0433 29.1757 30.3428 29.068V31.2971C30.3428 31.447 29.6963 32.0963 27.7083 32.4777ZM30.3428 27.055C30.3428 27.1149 30.1026 27.4963 29.0513 27.877C27.976 28.2662 26.5202 28.4801 24.9688 28.4801C23.4178 28.4801 21.9907 28.2662 20.9157 27.877C19.8641 27.4963 19.6626 27.1146 19.6626 27.055V24.8555C19.8897 24.9761 20.1255 25.0798 20.3675 25.1657C21.6125 25.6164 23.2401 25.8644 24.9716 25.8644C26.7035 25.8644 28.3558 25.6164 29.6007 25.1657C29.8737 25.067 30.0433 24.963 30.3428 24.8555V27.055ZM29.0513 23.664C27.976 24.0531 26.5202 24.2671 24.9688 24.2671C23.4178 24.2671 21.9907 24.0531 20.9157 23.664C19.8641 23.2836 19.6626 22.9019 19.6626 22.8425V20.6425C19.89 20.7627 20.1255 20.8664 20.3675 20.9526C21.6128 21.4033 23.2404 21.6513 24.9716 21.6513C26.7029 21.6513 28.3554 21.403 29.6007 20.9526C29.8737 20.8536 30.0433 20.7496 30.3428 20.6425V22.8425C30.3428 22.9019 30.1026 23.2836 29.0513 23.664ZM20.8866 17.808C21.962 17.4186 23.4084 17.2046 24.9591 17.2046C26.5096 17.2046 27.9563 17.4186 29.0316 17.808C30.0826 18.1888 30.3041 18.5701 30.3041 18.6298C30.3041 18.6888 30.0826 19.0702 29.0316 19.4509C27.9563 19.8404 26.5096 20.0543 24.9591 20.0543C23.4084 20.0543 21.962 19.8398 20.8866 19.4509C19.835 19.0702 19.6139 18.6888 19.6139 18.6298C19.6139 18.5701 19.8353 18.1888 20.8869 17.808H20.8866Z" fill="#1EA69A"/>
</svg>
