<svg width="50" height="50" viewBox="0 0 50 50" fill="none" xmlns="http://www.w3.org/2000/svg">
<g clip-path="url(#clip0_85_1540)">
<path d="M14.4066 21.3582H46.5828C47.5265 21.3582 48.3777 21.7429 48.9961 22.3609V22.3667C49.614 22.9851 49.9992 23.8363 49.9992 24.7742V46.5832C49.9992 47.5207 49.614 48.3777 48.9961 48.9957C48.3777 49.6144 47.5265 49.9988 46.5828 49.9988H14.4066C13.4687 49.9988 12.6117 49.6144 11.9937 48.9957C11.3754 48.3777 10.9906 47.5261 10.9906 46.5832V24.7742C10.9906 23.8363 11.3754 22.9792 11.9937 22.3609C12.6121 21.7429 13.4687 21.3582 14.4066 21.3582ZM46.5828 22.9199H14.4066C13.8969 22.9199 13.4359 23.1312 13.1 23.4671C12.7636 23.8035 12.5523 24.2644 12.5523 24.7742V46.5832C12.5523 47.0929 12.7636 47.5589 13.1 47.8953C13.4355 48.2308 13.8969 48.4371 14.4066 48.4371H46.5828C47.0925 48.4371 47.5586 48.2312 47.8949 47.8953C48.2308 47.5589 48.4375 47.0925 48.4375 46.5832V24.7742C48.4375 24.2644 48.2312 23.7984 47.8949 23.4621V23.4675C47.5586 23.1316 47.0925 22.9199 46.5828 22.9199Z" fill="#1EA69A"/>
<path d="M23.9719 14.8462H37.0234C37.7664 14.8462 38.4492 15.1497 38.9375 15.6431C39.4254 16.1364 39.7348 16.8146 39.7348 17.5571V22.1388V22.9196H38.9535H35.657H34.8766V22.1388V19.6017H26.1192V22.1392V22.92H25.3379H22.0414H21.2606V22.1392V17.5571C21.2606 16.8146 21.5641 16.131 22.052 15.6431C22.5453 15.1497 23.2238 14.8462 23.9719 14.8462ZM37.0231 16.4079H23.9719C23.657 16.4079 23.3699 16.5376 23.1582 16.7493C22.9524 16.9556 22.8227 17.2427 22.8227 17.5571V21.3579H24.5574V18.8204V18.0399H25.3383H35.657H36.4383V18.8204V21.3583H38.1731V17.5575C38.1731 17.2427 38.043 16.9556 37.8371 16.7497H37.8313C37.625 16.538 37.3379 16.4079 37.0231 16.4079Z" fill="#1EA69A"/>
<path d="M8.62656 42.3809C9.05508 42.3809 9.40742 42.7273 9.40742 43.1613C9.40742 43.5895 9.05508 43.9418 8.62656 43.9418H2.34258C1.70273 43.9418 1.11719 43.6762 0.688672 43.2535V43.248C0.265625 42.825 0 42.2398 0 41.5941V2.34219C0 1.70234 0.265625 1.1168 0.688672 0.688672C1.11133 0.265625 1.69688 0 2.34258 0H24.3078C24.6441 0 24.9586 0.0652344 25.252 0.195312C25.5395 0.325391 25.7996 0.514844 26.0328 0.758984V0.764453V0.758984L31.927 7.06523C31.943 7.08164 31.9539 7.09766 31.9703 7.11406C32.1594 7.32539 32.2953 7.55898 32.393 7.80273C32.4906 8.06875 32.5449 8.35039 32.5449 8.64883V12.477C32.5449 12.9105 32.1926 13.2578 31.7641 13.2578C31.3305 13.2578 30.9777 12.9105 30.9777 12.477V8.64883C30.9777 8.54023 30.9672 8.44297 30.9344 8.35586C30.902 8.28555 30.8641 8.22031 30.8152 8.15508C30.8043 8.14453 30.793 8.13906 30.7824 8.12813L24.8938 1.82187C24.8121 1.73516 24.7203 1.66992 24.6227 1.62109C24.5309 1.5832 24.4277 1.56172 24.3082 1.56172H2.34258C2.13125 1.56172 1.93594 1.64844 1.79492 1.79492L1.78945 1.78945C1.64844 1.93008 1.56172 2.13086 1.56172 2.34219V41.5941C1.56172 41.8109 1.64844 42.0063 1.78945 42.1473L1.79492 42.1527C1.93594 42.2887 2.13086 42.3809 2.34258 42.3809H8.62656Z" fill="#1EA69A"/>
<path d="M27.6644 35.5923L14.266 33.0485C13.3605 32.8806 12.525 32.4849 11.9238 31.8829C11.3484 31.3083 10.9906 30.5548 10.9906 29.6489H12.5523C12.5523 30.1099 12.7371 30.4896 13.0297 30.7825C13.4039 31.1509 13.9515 31.406 14.5535 31.5196L27.9519 34.0626L27.6644 35.5923ZM49.9988 29.6489C49.9988 30.5544 49.641 31.3028 49.066 31.8774V31.8829C48.464 32.4849 47.6293 32.881 46.7293 33.0485L33.3304 35.6134L33.0379 34.0845L46.4363 31.5196C47.0437 31.4005 47.5914 31.1513 47.9652 30.7825C48.2582 30.4896 48.4371 30.1095 48.4371 29.6489H49.9988Z" fill="#1EA69A"/>
<path d="M19.8996 6.97827C20.3332 6.97827 20.6804 7.32554 20.6804 7.75913C20.6804 8.18765 20.3332 8.53999 19.8996 8.53999H9.00115C8.56716 8.53999 8.2199 8.18765 8.2199 7.75913C8.2199 7.32554 8.56716 6.97827 9.00115 6.97827H19.8996ZM5.28084 6.97827C5.71482 6.97827 6.06755 7.32554 6.06755 7.75913C6.06755 8.18765 5.71521 8.53999 5.28084 8.53999H4.69568C4.26677 8.53999 3.91443 8.18765 3.91443 7.75913C3.91443 7.32554 4.26677 6.97827 4.69568 6.97827H5.28084Z" fill="#1EA69A"/>
<path d="M14.7644 14.0652C15.1929 14.0652 15.5453 14.4171 15.5453 14.846C15.5453 15.2796 15.1929 15.6265 14.7644 15.6265H9.00076C8.56716 15.6265 8.2199 15.2796 8.2199 14.846C8.2199 14.4175 8.56716 14.0652 9.00076 14.0652H14.7644ZM5.28123 14.0652C5.71482 14.0652 6.06755 14.4171 6.06755 14.846C6.06755 15.2796 5.71521 15.6265 5.28123 15.6265H4.69568C4.26716 15.6265 3.91443 15.2796 3.91443 14.846C3.91443 14.4175 4.26677 14.0652 4.69568 14.0652H5.28123Z" fill="#1EA69A"/>
<path d="M19.8996 10.5242C20.3332 10.5242 20.6804 10.8714 20.6804 11.305C20.6804 11.7332 20.3332 12.0859 19.8996 12.0859H9.00115C8.56716 12.0859 8.2199 11.7335 8.2199 11.305C8.2199 10.8714 8.56716 10.5242 9.00115 10.5242H19.8996ZM5.28084 10.5242C5.71482 10.5242 6.06755 10.8714 6.06755 11.305C6.06755 11.7332 5.71521 12.0859 5.28084 12.0859H4.69568C4.26677 12.0859 3.91443 11.7335 3.91443 11.305C3.91443 10.8714 4.26677 10.5242 4.69568 10.5242H5.28084Z" fill="#1EA69A"/>
<path d="M25.1106 0.287109L32.2188 8.00313C32.5063 8.31758 32.4903 8.81094 32.17 9.10352C32.0235 9.23906 31.8344 9.30977 31.6442 9.30977H26.7481C25.9133 9.30977 25.1594 8.96797 24.6117 8.4207C24.5957 8.4043 24.5789 8.38828 24.5629 8.37187C24.0422 7.8293 23.7223 7.09219 23.7223 6.28398V0.780859C23.7223 0.352344 24.0696 0 24.5035 0C24.7469 0 24.9641 0.113672 25.1106 0.287109ZM29.866 7.74844L25.284 2.78125V6.28437C25.284 6.67461 25.436 7.02695 25.6801 7.28711C25.6907 7.29805 25.702 7.30898 25.7129 7.31992C25.9785 7.58555 26.3469 7.74805 26.7481 7.74805L29.866 7.74844Z" fill="#1EA69A"/>
<path d="M35.5051 4.20747C35.4184 4.63013 35.0066 4.90122 34.5836 4.80942C34.1605 4.72231 33.8895 4.3106 33.9762 3.89263L34.2746 2.47192L34.6648 0.623096C34.7406 0.254736 35.066 -0.000732422 35.4293 -0.000732422H36.7957H38.1621C38.5578 -0.000732422 38.8836 0.292236 38.9375 0.677002L39.5121 3.40981C39.9133 3.52388 40.3039 3.65942 40.6832 3.81645C41.0684 3.97388 41.4422 4.15825 41.8 4.35903L44.1914 2.79731C44.5004 2.59653 44.907 2.64536 45.1617 2.90044H45.1676L46.1328 3.86567C46.1433 3.88208 46.1598 3.89302 46.1711 3.90903L47.098 4.83638C47.3687 5.102 47.3965 5.52505 47.1851 5.82856L45.6394 8.1977C45.8453 8.55591 46.0246 8.92974 46.1871 9.31489C46.3391 9.69419 46.4746 10.0848 46.5883 10.486L49.3754 11.077C49.7605 11.1528 50.0207 11.5 49.9992 11.8793V13.2032V14.5696C49.9992 14.9653 49.7066 15.2961 49.3215 15.345L46.5887 15.9196C46.475 16.3262 46.3391 16.7168 46.1875 17.0907C45.9598 17.6383 45.6887 18.1586 45.3797 18.6418C45.1523 19.0102 44.6695 19.1188 44.3008 18.8856C43.9375 18.6524 43.8293 18.17 44.0621 17.8063C44.3281 17.3891 44.5559 16.9497 44.7457 16.4946C44.9301 16.0497 45.0762 15.5942 45.1848 15.1282C45.2336 14.8192 45.4719 14.5641 45.7922 14.4938L48.4375 13.9407V13.2032H48.443V12.4711L45.7914 11.9125C45.5043 11.8532 45.2601 11.6305 45.1894 11.3215C45.0863 10.8391 44.9348 10.3727 44.7449 9.91216C44.5551 9.45669 44.3273 9.01724 44.0613 8.60005C43.9043 8.35044 43.8988 8.02505 44.0668 7.75942L45.5476 5.49302L45.0699 5.01059C45.0539 5.00005 45.0433 4.98872 45.0266 4.97231L44.5062 4.452L42.2883 5.89966C42.0336 6.09458 41.6809 6.11645 41.3996 5.93755C40.982 5.67192 40.543 5.44419 40.0875 5.25434C39.6426 5.06997 39.182 4.92349 38.7156 4.81528C38.4121 4.76645 38.1516 4.53325 38.0867 4.20786L37.5273 1.56138H36.7957H36.0578L35.8031 2.78677L35.5051 4.20747ZM36.7957 8.36645C36.3617 8.36645 36.0145 8.01919 36.0145 7.5856C36.0145 7.152 36.3617 6.80474 36.7957 6.80474C38.5629 6.80474 40.1625 7.52075 41.323 8.68091C42.4781 9.83599 43.1937 11.4356 43.1937 13.2032C43.1937 13.6696 43.1449 14.1305 43.0473 14.5696C42.9496 15.0192 42.8031 15.4536 42.6141 15.8707C42.4348 16.2614 41.9738 16.4348 41.5781 16.2559C41.1879 16.0766 41.0195 15.6157 41.1988 15.2254C41.3394 14.9219 41.448 14.5911 41.5238 14.2438C41.5945 13.9079 41.6324 13.5606 41.6324 13.2028C41.6324 11.8688 41.0902 10.6594 40.2172 9.7813C39.3387 8.90903 38.1293 8.36645 36.7957 8.36645Z" fill="#1EA69A"/>
<path d="M27.9196 29.6711H33.0758C33.4828 29.6711 33.8512 29.8391 34.1172 30.1043L34.1227 30.1098C34.3887 30.3762 34.5563 30.75 34.5563 31.1567V36.8719C34.5563 37.9887 34.1012 39.0028 33.3633 39.7399C32.6317 40.4778 31.6121 40.9333 30.4949 40.9333C29.3778 40.9333 28.3637 40.4778 27.6266 39.7399C26.8942 39.0028 26.4332 37.9891 26.4332 36.8719V31.1567C26.4332 30.75 26.6016 30.3754 26.8727 30.1098V30.1043C27.1438 29.8391 27.5129 29.6711 27.9196 29.6711ZM32.9949 31.2329H28.0008V36.8719C28.0008 37.5547 28.2774 38.184 28.7328 38.6344C29.1883 39.0899 29.8121 39.3715 30.4949 39.3715C31.184 39.3715 31.8071 39.0899 32.2625 38.6344C32.7125 38.1844 32.9949 37.5547 32.9949 36.8719V31.2329Z" fill="#1EA69A"/>
<path d="M30.4945 37.5493C30.9258 37.5493 31.2754 37.1997 31.2754 36.7684C31.2754 36.3372 30.9258 35.9875 30.4945 35.9875C30.0633 35.9875 29.7137 36.3372 29.7137 36.7684C29.7137 37.1997 30.0633 37.5493 30.4945 37.5493Z" fill="#1EA69A"/>
</g>
<defs>
<clipPath id="clip0_85_1540">
<rect width="50" height="50" fill="white"/>
</clipPath>
</defs>
</svg>
