<svg width="50" height="50" viewBox="0 0 50 50" fill="none" xmlns="http://www.w3.org/2000/svg">
<g clip-path="url(#clip0_85_1509)">
<path d="M18.75 32.1695V24.6094C18.75 23.1016 17.5234 21.875 16.0156 21.875C15.5945 21.875 15.2 21.9789 14.8438 22.1492V17.5781C14.8438 16.0703 13.6172 14.8438 12.1094 14.8438C11.6883 14.8438 11.2937 14.9477 10.9375 15.118V12.8906C10.9375 11.3828 9.71094 10.1562 8.20312 10.1562C6.93359 10.1562 5.87187 11.0312 5.56641 12.2062C5.08359 11.9016 4.51719 11.7188 3.90625 11.7188C2.18281 11.7188 0.78125 13.1203 0.78125 14.8438V28.125C0.78125 28.2555 0.814062 28.3844 0.876562 28.4992L5.56406 37.093C5.6 37.1578 5.64531 37.2188 5.69766 37.2711L11.8141 43.3875C12.25 43.8234 12.5 44.4273 12.5 45.0445V48.4375C12.5 48.8688 12.85 49.2188 13.2812 49.2188H22.6562C23.0875 49.2188 23.4375 48.8688 23.4375 48.4375V38.732C23.4375 37.7391 23.0641 36.7922 22.3867 36.0664L18.75 32.1695ZM16.0156 23.4375C16.6617 23.4375 17.1875 23.9633 17.1875 24.6094V30.4953L14.8438 27.9844V24.6094C14.8438 23.9633 15.3695 23.4375 16.0156 23.4375ZM12.1094 16.4062C12.7555 16.4062 13.2812 16.932 13.2812 17.5781V24.6094V26.3102L12.7531 25.7445C12.3117 25.2719 11.6875 25 11.0398 25H10.9375V17.5781C10.9375 16.932 11.4633 16.4062 12.1094 16.4062ZM7.03125 12.8906C7.03125 12.2445 7.55703 11.7188 8.20312 11.7188C8.84922 11.7188 9.375 12.2445 9.375 12.8906V17.5781V25.6078C9.02812 25.9203 8.76953 26.3305 8.65781 26.8L7.03125 24.7297V14.8438V12.8906ZM21.875 47.6562H14.0625V45.0445C14.0625 44.0016 13.6562 43.0203 12.9187 42.2828L6.88203 36.2461L2.34375 27.9258V14.8438C2.34375 13.982 3.04453 13.2812 3.90625 13.2812C4.76797 13.2812 5.46875 13.982 5.46875 14.8438V25C5.46875 25.175 5.52734 25.3445 5.63594 25.4828L14.2297 36.4203L15.4578 35.4555L10.1562 28.707V27.3438C10.1562 26.9133 10.507 26.5625 10.9375 26.5625H11.0398C11.2555 26.5625 11.4633 26.6531 11.6109 26.8102L21.2453 37.132C21.6508 37.568 21.875 38.1359 21.875 38.732V47.6562Z" fill="#1EA69A"/>
<path d="M46.0938 11.7188C45.4828 11.7188 44.9164 11.9016 44.4336 12.2062C44.1281 11.0312 43.0664 10.1562 41.7969 10.1562C40.2891 10.1562 39.0625 11.3828 39.0625 12.8906V15.118C38.7063 14.9477 38.3117 14.8438 37.8906 14.8438C36.3828 14.8438 35.1562 16.0703 35.1562 17.5781V22.1492C34.8 21.9789 34.4055 21.875 33.9844 21.875C32.4766 21.875 31.25 23.1016 31.25 24.6094V32.1695L27.6133 36.0664C26.9359 36.7922 26.5625 37.7391 26.5625 38.732V48.4375C26.5625 48.8688 26.9125 49.2188 27.3438 49.2188H36.7188C37.15 49.2188 37.5 48.8688 37.5 48.4375V45.0445C37.5 44.4273 37.75 43.8242 38.1859 43.3875L44.3023 37.2711C44.3547 37.2188 44.4 37.1578 44.4359 37.093L49.1234 28.4992C49.1859 28.3844 49.2188 28.2555 49.2188 28.125V14.8438C49.2188 13.1203 47.8172 11.7188 46.0938 11.7188ZM40.625 12.8906C40.625 12.2445 41.1508 11.7188 41.7969 11.7188C42.443 11.7188 42.9688 12.2445 42.9688 12.8906V14.8438V24.7297L41.3422 26.7992C41.2305 26.3297 40.9719 25.9203 40.625 25.607V17.5781V12.8906ZM36.7188 17.5781C36.7188 16.932 37.2445 16.4062 37.8906 16.4062C38.5367 16.4062 39.0625 16.932 39.0625 17.5781V25H38.9602C38.3125 25 37.6883 25.2719 37.2469 25.7445L36.7188 26.3109V24.6094V17.5781ZM32.8125 24.6094C32.8125 23.9633 33.3383 23.4375 33.9844 23.4375C34.6305 23.4375 35.1562 23.9633 35.1562 24.6094V27.9844L32.8125 30.4953V24.6094ZM47.6562 27.9258L43.118 36.2453L37.0813 42.282C36.3438 43.0203 35.9375 44.0008 35.9375 45.0445V47.6562H28.125V38.732C28.125 38.1359 28.3492 37.568 28.7555 37.1328L38.3898 26.8109C38.5367 26.6531 38.7445 26.5625 38.9602 26.5625H39.0625C39.493 26.5625 39.8438 26.9133 39.8438 27.3438V28.707L34.5422 35.4547L35.7703 36.4195L44.3641 25.482C44.4727 25.3445 44.5312 25.175 44.5312 25V14.8438C44.5312 13.982 45.232 13.2812 46.0938 13.2812C46.9555 13.2812 47.6562 13.982 47.6562 14.8438V27.9258Z" fill="#1EA69A"/>
<path d="M36.7047 7.21727C36.5734 5.10946 35.5164 3.21024 33.8062 2.00634C31.3101 0.250085 27.9383 0.40321 25.6062 2.37821L25 2.89227L24.393 2.37821C22.0609 0.40321 18.6898 0.250085 16.1929 2.00634C14.4828 3.21024 13.4258 5.10946 13.2945 7.21727C13.1625 9.33134 13.9781 11.354 15.5328 12.7673L24.4742 20.8993C24.6234 21.0345 24.8117 21.1024 25 21.1024C25.1883 21.1024 25.3765 21.0345 25.5258 20.8993L34.4672 12.7673C36.0211 11.354 36.8367 9.33134 36.7047 7.21727ZM25 19.2665L16.5844 11.6126C15.3828 10.5196 14.7523 8.95321 14.8547 7.31571C14.9562 5.68368 15.7726 4.21415 17.0929 3.28524C17.9828 2.65868 19.0172 2.3493 20.05 2.3493C21.239 2.3493 22.4258 2.75946 23.3828 3.57118L24.4945 4.51337C24.7859 4.75946 25.2133 4.75946 25.5047 4.51337L26.6172 3.5704C28.4055 2.05555 30.993 1.9368 32.907 3.28446C34.2273 4.21337 35.0437 5.6829 35.1453 7.31493C35.2476 8.95321 34.6172 10.5196 33.4156 11.6118L25 19.2665Z" fill="#1EA69A"/>
</g>
<defs>
<clipPath id="clip0_85_1509">
<rect width="50" height="50" fill="white"/>
</clipPath>
</defs>
</svg>
