<svg width="50" height="50" viewBox="0 0 50 50" fill="none" xmlns="http://www.w3.org/2000/svg">
<path d="M16.1078 33.5938L15.9744 33.3268C15.7809 32.9366 15.4819 32.6084 15.1114 32.3794C14.7409 32.1504 14.3136 32.0298 13.8781 32.0313H11.1219C10.6864 32.0298 10.2591 32.1504 9.88858 32.3794C9.51805 32.6084 9.2191 32.9366 9.02562 33.3268L8.89215 33.5938H8.59375C7.97237 33.5945 7.37664 33.8416 6.93725 34.281C6.49787 34.7204 6.25071 35.3161 6.25 35.9375V40.625C6.25071 41.2464 6.49787 41.8421 6.93725 42.2815C7.37664 42.7209 7.97237 42.968 8.59375 42.9688H16.4063C17.0276 42.968 17.6234 42.7209 18.0627 42.2815C18.5021 41.8421 18.7493 41.2464 18.75 40.625V35.9375C18.7493 35.3161 18.5021 34.7204 18.0627 34.281C17.6234 33.8416 17.0276 33.5945 16.4063 33.5938H16.1078ZM17.1875 35.9375V40.625C17.1873 40.8321 17.1049 41.0307 16.9584 41.1772C16.812 41.3236 16.6134 41.406 16.4063 41.4063H8.59375C8.38662 41.406 8.18805 41.3236 8.04158 41.1772C7.89512 41.0307 7.81274 40.8321 7.8125 40.625V35.9375C7.81274 35.7304 7.89512 35.5318 8.04158 35.3853C8.18805 35.2389 8.38662 35.1565 8.59375 35.1563H9.85785L10.4231 34.0257C10.4876 33.8956 10.5873 33.7862 10.7108 33.7098C10.8343 33.6335 10.9767 33.5933 11.1219 33.5938H13.8781C14.0233 33.5933 14.1657 33.6335 14.2892 33.7098C14.4127 33.7862 14.5124 33.8956 14.5769 34.0257L15.1422 35.1563H16.4063C16.6134 35.1565 16.812 35.2389 16.9584 35.3853C17.1049 35.5318 17.1873 35.7304 17.1875 35.9375Z" fill="#1EA69A"/>
<path d="M37.5 26.5625H32.8125V28.125H37.5C39.3542 28.125 41.1668 28.6748 42.7085 29.705C44.2502 30.7351 45.4518 32.1993 46.1614 33.9123C46.8709 35.6254 47.0566 37.5104 46.6949 39.329C46.3331 41.1475 45.4402 42.818 44.1291 44.1291C42.818 45.4402 41.1475 46.3331 39.329 46.6949C37.5104 47.0566 35.6254 46.8709 33.9123 46.1614C32.1993 45.4518 30.7351 44.2502 29.705 42.7085C28.6748 41.1668 28.125 39.3542 28.125 37.5V34.375H26.5625V37.5C26.5625 39.6632 27.204 41.7779 28.4058 43.5766C29.6076 45.3752 31.3158 46.7771 33.3144 47.6049C35.313 48.4328 37.5121 48.6494 39.6338 48.2273C41.7555 47.8053 43.7043 46.7636 45.234 45.234C46.7636 43.7043 47.8053 41.7555 48.2273 39.6338C48.6494 37.5121 48.4328 35.313 47.6049 33.3144C46.7771 31.3158 45.3752 29.6076 43.5766 28.4058C41.7779 27.204 39.6632 26.5625 37.5 26.5625Z" fill="#1EA69A"/>
<path d="M21.875 37.5C21.875 39.3542 21.3252 41.1668 20.295 42.7085C19.2649 44.2502 17.8007 45.4518 16.0877 46.1614C14.3746 46.8709 12.4896 47.0566 10.671 46.6949C8.85246 46.3331 7.182 45.4402 5.87088 44.1291C4.55976 42.818 3.66688 41.1475 3.30514 39.329C2.94341 37.5104 3.12906 35.6254 3.83863 33.9123C4.54821 32.1993 5.74982 30.7351 7.29153 29.705C8.83324 28.6748 10.6458 28.125 12.5 28.125H17.1875V26.5625H12.5C10.3368 26.5625 8.22212 27.204 6.42345 28.4058C4.62479 29.6076 3.22291 31.3158 2.39507 33.3144C1.56724 35.313 1.35064 37.5121 1.77267 39.6338C2.19469 41.7555 3.23639 43.7043 4.76602 45.234C6.29566 46.7636 8.24454 47.8053 10.3662 48.2273C12.4879 48.6494 14.687 48.4328 16.6856 47.6049C18.6842 46.7771 20.3924 45.3752 21.5942 43.5766C22.796 41.7779 23.4375 39.6632 23.4375 37.5V34.375H21.875V37.5Z" fill="#1EA69A"/>
<path d="M12.5 23.4375H20.3125V21.875H12.5C10.6458 21.875 8.83324 21.3252 7.29153 20.295C5.74982 19.2649 4.54821 17.8007 3.83863 16.0877C3.12906 14.3746 2.94341 12.4896 3.30514 10.671C3.66688 8.85246 4.55976 7.182 5.87088 5.87088C7.182 4.55976 8.85246 3.66688 10.671 3.30514C12.4896 2.94341 14.3746 3.12906 16.0877 3.83863C17.8007 4.54821 19.2649 5.74982 20.295 7.29153C21.3252 8.83324 21.875 10.6458 21.875 12.5V15.625H23.4375V12.5C23.4375 10.3368 22.796 8.22212 21.5942 6.42345C20.3924 4.62479 18.6842 3.22291 16.6856 2.39507C14.687 1.56724 12.4879 1.35064 10.3662 1.77267C8.24454 2.19469 6.29566 3.23639 4.76602 4.76602C3.23639 6.29566 2.19469 8.24454 1.77267 10.3662C1.35064 12.4879 1.56724 14.687 2.39507 16.6856C3.22291 18.6842 4.62479 20.3924 6.42345 21.5942C8.22212 22.796 10.3368 23.4375 12.5 23.4375Z" fill="#1EA69A"/>
<path d="M28.125 12.5C28.125 10.6458 28.6748 8.83324 29.705 7.29153C30.7351 5.74982 32.1993 4.54821 33.9123 3.83863C35.6254 3.12906 37.5104 2.94341 39.329 3.30514C41.1475 3.66688 42.818 4.55976 44.1291 5.87088C45.4402 7.182 46.3331 8.85246 46.6949 10.671C47.0566 12.4896 46.8709 14.3746 46.1614 16.0877C45.4518 17.8007 44.2502 19.2649 42.7085 20.295C41.1668 21.3252 39.3542 21.875 37.5 21.875H29.6875V23.4375H37.5C39.6632 23.4375 41.7779 22.796 43.5766 21.5942C45.3752 20.3924 46.7771 18.6842 47.6049 16.6856C48.4328 14.687 48.6494 12.4879 48.2273 10.3662C47.8053 8.24454 46.7636 6.29566 45.234 4.76602C43.7043 3.23639 41.7555 2.19469 39.6338 1.77267C37.5121 1.35064 35.313 1.56724 33.3144 2.39507C31.3158 3.22291 29.6076 4.62479 28.4058 6.42345C27.204 8.22212 26.5625 10.3368 26.5625 12.5V15.625H28.125V12.5Z" fill="#1EA69A"/>
<path d="M21.875 20.3125V21.9466C21.8744 22.5637 22.0571 23.167 22.3999 23.68L23.0013 24.5823L20.3526 25.4652C19.8857 25.6204 19.4795 25.9187 19.1919 26.3179C18.9042 26.717 18.7496 27.1967 18.75 27.6887V32.8125H31.25V27.6887C31.2504 27.1967 31.0958 26.717 30.8081 26.3179C30.5205 25.9187 30.1143 25.6204 29.6474 25.4652L26.9987 24.5823L27.6002 23.68C27.9429 23.167 28.1256 22.5637 28.125 21.9466V20.3125C28.125 19.4837 27.7958 18.6888 27.2097 18.1028C26.6237 17.5167 25.8288 17.1875 25 17.1875C24.1712 17.1875 23.3763 17.5167 22.7903 18.1028C22.2042 18.6888 21.875 19.4837 21.875 20.3125ZM29.1533 26.9476C29.3089 26.9993 29.4443 27.0987 29.5402 27.2318C29.6361 27.3648 29.6877 27.5247 29.6875 27.6887V31.25H20.3125V27.6887C20.3123 27.5247 20.3639 27.3648 20.4598 27.2318C20.5557 27.0987 20.6911 26.9993 20.8467 26.9476L25 25.563L29.1533 26.9476ZM23.4375 20.3125C23.4375 19.8981 23.6021 19.5007 23.8951 19.2076C24.1882 18.9146 24.5856 18.75 25 18.75C25.4144 18.75 25.8118 18.9146 26.1049 19.2076C26.3979 19.5007 26.5625 19.8981 26.5625 20.3125V21.9466C26.5628 22.2551 26.4715 22.5568 26.3001 22.8133L25 24.7635L23.6999 22.8133C23.5285 22.5568 23.4372 22.2551 23.4375 21.9466V20.3125Z" fill="#1EA69A"/>
<path d="M12.5 35.1562C12.0365 35.1562 11.5833 35.2937 11.1979 35.5512C10.8125 35.8088 10.5121 36.1748 10.3347 36.6031C10.1573 37.0313 10.1109 37.5026 10.2013 37.9572C10.2917 38.4119 10.5149 38.8295 10.8427 39.1573C11.1705 39.485 11.5881 39.7083 12.0428 39.7987C12.4974 39.8891 12.9686 39.8427 13.3969 39.6653C13.8252 39.4879 14.1912 39.1875 14.4488 38.8021C14.7063 38.4167 14.8437 37.9635 14.8437 37.5C14.843 36.8786 14.5959 36.2829 14.1565 35.8435C13.7171 35.4041 13.1214 35.157 12.5 35.1562ZM12.5 38.2812C12.3455 38.2812 12.1944 38.2354 12.066 38.1496C11.9375 38.0637 11.8374 37.9417 11.7782 37.799C11.7191 37.6562 11.7036 37.4991 11.7338 37.3476C11.7639 37.196 11.8383 37.0568 11.9476 36.9476C12.0568 36.8383 12.196 36.7639 12.3476 36.7338C12.4991 36.7036 12.6562 36.7191 12.799 36.7782C12.9417 36.8373 13.0637 36.9375 13.1496 37.066C13.2354 37.1944 13.2812 37.3455 13.2812 37.5C13.281 37.7071 13.1986 37.9057 13.0522 38.0522C12.9057 38.1986 12.7071 38.281 12.5 38.2812Z" fill="#1EA69A"/>
<path d="M37.5 32.8125V31.25H34.5932L33.0279 35.9457C32.9567 35.9409 32.885 35.9375 32.8125 35.9375C32.06 35.9364 31.3323 36.2065 30.7627 36.6983C30.1931 37.1901 29.8199 37.8707 29.7112 38.6153C29.6026 39.36 29.766 40.1188 30.1713 40.7528C30.5767 41.3868 31.197 41.8536 31.9184 42.0675C32.6399 42.2814 33.4143 42.2281 34.0997 41.9175C34.7852 41.6069 35.3357 41.0597 35.6505 40.3762C35.9653 39.6927 36.0233 38.9187 35.8138 38.1959C35.6044 37.4731 35.1415 36.85 34.51 36.4408L34.7817 35.6256L39.0844 38.6989C39.0147 39.2947 39.118 39.898 39.3819 40.4367C39.6459 40.9754 40.0593 41.4268 40.5729 41.7368C41.0864 42.0469 41.6784 42.2026 42.278 42.1853C42.8777 42.1679 43.4596 41.9784 43.9545 41.6392C44.4493 41.3001 44.836 40.8256 45.0684 40.2726C45.3009 39.7196 45.3692 39.1113 45.2653 38.5205C45.1613 37.9297 44.8895 37.3813 44.4823 36.9408C44.0751 36.5003 43.5496 36.1863 42.9688 36.0364V31.25H40.625V32.8125H41.4063V34.293L35.4252 33.6949L35.7194 32.8125H37.5ZM32.8125 40.625C32.4254 40.625 32.052 40.4812 31.7648 40.2216C31.4776 39.962 31.297 39.605 31.258 39.2199C31.219 38.8347 31.3244 38.4487 31.5537 38.1368C31.7831 37.8249 32.12 37.6092 32.4993 37.5316L32.0714 38.8154L33.5537 39.3096L33.9807 38.0284C34.1807 38.2533 34.3114 38.5313 34.357 38.8288C34.4026 39.1263 34.3612 39.4306 34.2377 39.7051C34.1142 39.9796 33.9139 40.2125 33.6611 40.3757C33.4082 40.5389 33.1135 40.6255 32.8125 40.625ZM42.1875 37.5C42.4966 37.5 42.7987 37.5916 43.0556 37.7633C43.3126 37.935 43.5128 38.179 43.6311 38.4646C43.7493 38.7501 43.7803 39.0642 43.72 39.3673C43.6597 39.6704 43.5109 39.9488 43.2924 40.1674C43.0739 40.3859 42.7955 40.5347 42.4924 40.595C42.1893 40.6553 41.8751 40.6243 41.5896 40.5061C41.3041 40.3878 41.06 40.1875 40.8884 39.9306C40.7167 39.6736 40.625 39.3715 40.625 39.0625C40.6255 38.6482 40.7903 38.2511 41.0832 37.9582C41.3761 37.6652 41.7733 37.5005 42.1875 37.5ZM41.4063 35.8632V36.0364C40.7139 36.2165 40.104 36.6281 39.6779 37.2027L37.216 35.4442L41.4063 35.8632Z" fill="#1EA69A"/>
<path d="M15.625 6.25H9.375C8.75361 6.2507 8.15788 6.49786 7.71849 6.93724C7.2791 7.37663 7.03195 7.97236 7.03125 8.59375V13.9851L6.45203 16.8811C6.4067 17.1078 6.41223 17.3417 6.46822 17.566C6.52422 17.7903 6.62929 17.9993 6.77585 18.1781C6.92242 18.3569 7.10683 18.5009 7.31578 18.5998C7.52473 18.6987 7.75303 18.75 7.9842 18.75H17.0158C17.247 18.75 17.4753 18.6987 17.6842 18.5998C17.8932 18.5009 18.0776 18.3569 18.2242 18.1781C18.3707 17.9993 18.4758 17.7902 18.5318 17.5659C18.5878 17.3416 18.5933 17.1077 18.548 16.881L17.9687 13.985V8.59375C17.968 7.97236 17.7209 7.37663 17.2815 6.93724C16.8421 6.49786 16.2464 6.2507 15.625 6.25ZM8.59375 8.59375C8.59398 8.38662 8.67637 8.18805 8.82283 8.04158C8.96929 7.89512 9.16787 7.81274 9.375 7.8125H15.625C15.8321 7.81274 16.0307 7.89512 16.1772 8.04158C16.3236 8.18805 16.406 8.38662 16.4062 8.59375V13.2813H8.59375V8.59375ZM17.0158 17.1875H7.9842L8.45298 14.8438H16.5474L17.0175 17.1874L17.0158 17.1875Z" fill="#1EA69A"/>
<path d="M39.0625 5.46875V8.16388C38.514 8.02964 37.9402 8.03894 37.3964 8.19089C36.8525 8.34284 36.357 8.6323 35.9575 9.03139L35.662 9.32684C33.3375 11.6447 31.5399 14.4363 30.3917 17.5117C30.2832 17.8 30.2624 18.114 30.3319 18.4141C30.4014 18.7142 30.5581 18.9871 30.7824 19.1984C31.0066 19.4096 31.2883 19.5499 31.592 19.6014C31.8957 19.653 32.2079 19.6136 32.4893 19.4881L34.0487 18.7951C36.6284 17.6508 38.9744 16.0396 40.9686 14.0426C41.3677 13.6431 41.6571 13.1475 41.8091 12.6037C41.961 12.0598 41.9703 11.486 41.8361 10.9375H44.5313V9.375H41.7299L43.5212 7.58371L42.4163 6.47879L40.625 8.27012V5.46875H39.0625ZM39.8637 12.9376C38.0051 14.7989 35.8185 16.3007 33.4141 17.3673L31.855 18.0597C32.4226 16.5433 33.1608 15.0963 34.0552 13.7466L35.5042 14.7125L36.3709 13.4125L34.9662 12.476C35.2823 12.068 35.6135 11.6706 35.9599 11.2836L36.9476 12.2712L38.0524 11.1663L37.0424 10.1562L37.0623 10.1363C37.3858 9.8135 37.8242 9.63221 38.2813 9.63221C38.7383 9.63221 39.1767 9.8135 39.5002 10.1363L39.8637 10.4999C40.1865 10.8234 40.3678 11.2617 40.3678 11.7188C40.3678 12.1758 40.1865 12.6141 39.8637 12.9376Z" fill="#1EA69A"/>
</svg>
