<svg width="50" height="50" viewBox="0 0 50 50" fill="none" xmlns="http://www.w3.org/2000/svg">
<g clip-path="url(#clip0_85_1519)">
<path d="M42.9723 0H40.8226C39.8776 0 39.8776 1.46506 40.8226 1.46506H42.9723C45.1923 1.46506 46.9986 3.26473 46.9986 5.47677V22.4296C46.9986 24.6417 45.1924 26.4414 42.9723 26.4414H40.5342C40.3733 26.4414 40.2169 26.4944 40.0891 26.5921L35.6152 30.0143V27.1739C35.6152 26.7694 35.2873 26.4414 34.8827 26.4414H25.9673C25.2372 26.4414 24.5356 26.2487 23.9167 25.8824V17.6593C23.9167 16.119 23.1322 14.7582 21.9409 13.9531V5.47677C21.9409 3.26473 23.7472 1.46506 25.9673 1.46506H36.2321C37.1769 1.46506 37.1769 0 36.2321 0H25.9673C22.9393 0 20.4759 2.4569 20.4759 5.47677V13.3092C20.1405 13.2292 19.791 13.1855 19.4314 13.1855H6.02166C3.54854 13.1855 1.53644 15.1924 1.53644 17.6593V19.2411C1.53644 20.1859 3.00149 20.1859 3.00149 19.2411V17.6593C3.00149 16.0003 4.35628 14.6506 6.02166 14.6506H19.4315C21.0969 14.6506 22.4518 16.0003 22.4518 17.6593V26.174C22.443 26.2387 22.4434 26.3038 22.4518 26.368V31.028C22.4518 31.1201 22.4462 31.2118 22.4379 31.3031H20.9272C19.2626 31.3031 17.8749 32.5045 17.5872 34.0835C17.5206 34.1086 17.4566 34.1437 17.3973 34.1894L14.121 36.7192V34.7693C14.121 34.3647 13.7931 34.0368 13.3884 34.0368H6.02166C4.35628 34.0368 3.00149 32.687 3.00149 31.028V23.6362C3.00149 22.6914 1.53644 22.6914 1.53644 23.6362V31.0281C1.53644 33.495 3.54854 35.5019 6.02166 35.5019H12.656V38.2103C12.656 38.7979 13.3695 39.1504 13.8363 38.7902L17.5316 35.9369V44.1779C17.5316 46.0458 19.055 47.5654 20.9273 47.5654H25.4226V49.2747C25.4226 49.8621 26.1361 50.215 26.6027 49.8546L29.5676 47.5654H30.4435C32.3159 47.5654 33.8392 46.0457 33.8392 44.1779V42.8773C33.8392 41.9324 32.3742 41.9324 32.3742 42.8773V44.1779C32.3742 45.238 31.5081 46.1003 30.4435 46.1003H29.3177C29.1557 46.1003 28.9982 46.154 28.8701 46.253L26.8876 47.7836V46.8327C26.8876 46.4282 26.5597 46.1002 26.155 46.1002H20.9272C19.8627 46.1002 18.9966 45.2378 18.9966 44.1778V34.6907C18.9966 33.6305 19.8626 32.7682 20.9272 32.7682H30.4435C31.508 32.7682 32.3742 33.6306 32.3742 34.6907V38.2868C32.3742 39.2316 33.8392 39.2316 33.8392 38.2868V34.6908C33.8392 32.8228 32.3159 31.3032 30.4435 31.3032H23.9084C23.914 31.2117 23.9168 27.5119 23.9168 27.5119C24.5627 27.7716 25.2552 27.9066 25.9674 27.9066H34.1502V31.4969C34.1502 32.083 34.8607 32.4359 35.3278 32.0788L40.7823 27.9066H42.9724C46.0003 27.9066 48.4637 25.4497 48.4637 22.4297V5.47677C48.4636 2.4569 46.0002 0 42.9723 0V0Z" fill="#1EA69A"/>
<path d="M36.3002 5.41215C35.3701 5.17472 34.4223 5.90959 34.4223 6.87067C34.4223 7.92072 34.0396 8.93268 33.3452 9.71961L31.327 12.0034C31.1963 11.8029 30.9705 11.6702 30.7133 11.6702H26.7733C26.3687 11.6702 26.0408 11.9982 26.0408 12.4027V21.2678C26.0408 21.6723 26.3687 22.0003 26.7733 22.0003H30.7133C31.0094 22.0003 31.2637 21.8244 31.3792 21.5718C32.1769 22.0592 33.1013 22.3227 34.0417 22.3227H41.0049C42.0689 22.3227 42.9466 21.3994 42.8967 20.3381C42.8746 19.8681 42.8988 13.5574 42.8988 13.4172C42.8988 12.3729 42.0491 11.5232 41.007 11.5232L37.3861 11.5124L37.536 11.1573C38.2211 9.53472 38.1083 7.6532 37.2346 6.12398C37.0306 5.7667 36.6987 5.51402 36.3002 5.41215C36.6987 5.51402 35.9015 5.31038 36.3002 5.41215C36.6987 5.51402 35.3701 5.17472 36.3002 5.41215ZM29.9808 20.5352H27.5058V13.1352H29.9808V20.5352ZM41.0049 12.9882C41.2414 12.9882 41.4338 13.1806 41.4338 13.4171C41.4338 13.5565 41.4324 13.9348 41.4304 14.4476C41.4196 17.2793 41.4123 19.9611 41.4332 20.4069C41.4409 20.5678 41.3626 20.675 41.3153 20.7246C41.2335 20.8104 41.1232 20.8575 41.0049 20.8575H34.0417C33.2117 20.8575 32.3994 20.5699 31.7542 20.0477L31.4459 19.798V14.0813L34.4435 10.6893C35.3745 9.63405 35.8873 8.2779 35.8873 6.87057C35.8873 6.82916 35.9439 6.81841 35.9626 6.85064C36.6113 7.98587 36.695 9.38265 36.1864 10.5872L35.6083 11.9565C35.5128 12.1824 35.5369 12.4409 35.672 12.6454C35.8072 12.8499 36.0358 12.9732 36.2808 12.974L41.0049 12.9882Z" fill="#1EA69A"/>
<path d="M7.80882 25.443C7.40417 25.443 7.07629 25.771 7.07629 26.1755C7.07629 26.5801 7.40417 26.9081 7.80882 26.9081H9.96812L9.56474 29.3478C9.49872 29.7468 9.76887 30.1239 10.168 30.19C10.2085 30.1967 10.2486 30.1999 10.2883 30.1999C10.6403 30.1999 10.9508 29.9455 11.0102 29.5868L11.453 26.9082H13.2202L12.8168 29.3479C12.7508 29.7469 13.0209 30.124 13.42 30.1901C13.4605 30.1968 13.5007 30.2 13.5403 30.2C13.8923 30.2 14.2028 29.9456 14.2622 29.5869L14.705 26.9083H17.6442C18.0489 26.9083 18.3768 26.5803 18.3768 26.1757C18.3768 25.7712 18.0489 25.4432 17.6442 25.4432H14.9473L15.2427 23.6562H17.6442C18.0489 23.6562 18.3768 23.3282 18.3768 22.9237C18.3768 22.5191 18.0489 22.1912 17.6442 22.1912H15.4849L15.8883 19.7515C15.9543 19.3524 15.6842 18.9753 15.2851 18.9092C14.8855 18.843 14.5089 19.1134 14.4429 19.5125L14.0001 22.1911H12.2329L12.6363 19.7514C12.7023 19.3523 12.4321 18.9752 12.0331 18.9091C11.633 18.8429 11.257 19.1133 11.1909 19.5124L10.748 22.191H7.80882C7.40417 22.191 7.07629 22.5189 7.07629 22.9235C7.07629 23.328 7.40417 23.656 7.80882 23.656H10.5058L10.2103 25.443H7.80882ZM11.9908 23.656H13.7579L13.4625 25.443H11.6953L11.9908 23.656Z" fill="#1EA69A"/>
<path d="M25.6766 36.5479C25.0851 36.0609 24.2981 35.8688 23.5088 36.0607C22.4972 36.3063 21.4764 37.252 21.4764 38.8107C21.4764 39.7809 21.8305 40.623 22.5588 41.3852C23.1537 42.0078 24.0123 42.5999 25.3423 43.3051C25.4497 43.3621 25.5676 43.3905 25.6854 43.3905C25.8033 43.3905 25.9212 43.3621 26.0286 43.3051C28.349 42.0749 29.8944 40.8399 29.8944 38.8107C29.8944 37.2435 28.8374 36.3075 27.7898 36.0751C27.0027 35.9005 26.2397 36.0859 25.6766 36.5479ZM28.4292 38.8107C28.4292 39.9052 27.7032 40.7146 25.6854 41.8254C23.6675 40.7145 22.9414 39.9051 22.9414 38.8107C22.9414 37.9963 23.413 37.5916 23.8543 37.4843C23.9357 37.4646 24.0228 37.4535 24.1124 37.4535C24.4444 37.4535 24.8093 37.6068 25.0344 38.0431C25.1626 38.2914 25.4218 38.4453 25.6999 38.4396C25.9791 38.434 26.231 38.2701 26.3491 38.0169C26.5862 37.5089 27.0847 37.4195 27.4722 37.5055C27.935 37.608 28.4292 38.0048 28.4292 38.8107Z" fill="#1EA69A"/>
</g>
<defs>
<clipPath id="clip0_85_1519">
<rect width="50" height="50" fill="white"/>
</clipPath>
</defs>
</svg>
