<svg width="50" height="50" viewBox="0 0 50 50" fill="none" xmlns="http://www.w3.org/2000/svg">
<path d="M9.13701 5.39746C7.31533 5.39746 5.8333 6.879 5.8333 8.6999C5.8333 10.5208 7.31533 12.0023 9.13701 12.0023C10.9602 12.0023 12.4435 10.5208 12.4435 8.6999C12.4435 6.879 10.9602 5.39746 9.13701 5.39746ZM9.13701 10.0328C8.40136 10.0328 7.80293 9.43486 7.80293 8.6999C7.80293 7.96494 8.40136 7.36709 9.13701 7.36709C9.87412 7.36709 10.4739 7.96504 10.4739 8.7C10.4739 9.43496 9.87412 10.0328 9.13701 10.0328Z" fill="#1EA69A"/>
<path d="M38.0238 5.39746H29.2905C27.4688 5.39746 25.9868 6.879 25.9868 8.6999C25.9868 10.5208 27.4688 12.0023 29.2905 12.0023H38.0238C39.8455 12.0023 41.3275 10.5208 41.3275 8.6999C41.3275 6.879 39.8455 5.39746 38.0238 5.39746ZM38.0238 10.0328H29.2905C28.5549 10.0328 27.9564 9.43486 27.9564 8.6999C27.9564 7.96494 28.555 7.36699 29.2905 7.36699H38.0238C38.7595 7.36699 39.3579 7.96494 39.3579 8.6999C39.3579 9.43486 38.7595 10.0328 38.0238 10.0328Z" fill="#1EA69A"/>
<path d="M17.6987 5.39746C15.8771 5.39746 14.395 6.879 14.395 8.6999C14.395 10.5208 15.8771 12.0023 17.6987 12.0023C19.5219 12.0023 21.0052 10.5208 21.0052 8.6999C21.0052 6.879 19.5219 5.39746 17.6987 5.39746ZM17.6987 10.0328C16.9631 10.0328 16.3646 9.43486 16.3646 8.6999C16.3646 7.96494 16.9632 7.36699 17.6987 7.36699C18.4358 7.36699 19.0356 7.96494 19.0356 8.6999C19.0356 9.43486 18.4358 10.0328 17.6987 10.0328Z" fill="#1EA69A"/>
<path d="M16.093 21.7231C15.5642 21.5964 15.0326 21.9229 14.9062 22.452L12.9525 30.6276C12.8262 31.1566 13.1524 31.6879 13.6814 31.8143C13.7584 31.8326 13.8354 31.8415 13.9112 31.8415C14.3564 31.8415 14.7602 31.5374 14.8682 31.0854L16.8219 22.9098C16.9483 22.3808 16.622 21.8495 16.093 21.7231Z" fill="#1EA69A"/>
<path d="M19.7085 30.8535C19.8962 31.0207 20.1302 31.1029 20.3632 31.1029C20.6344 31.1029 20.9044 30.9916 21.099 30.7731L23.8605 27.6731C24.3162 27.1659 24.3162 26.3716 23.8634 25.8676L21.0989 22.7644C20.737 22.3581 20.1144 22.3224 19.7085 22.684C19.3022 23.0458 19.2663 23.6684 19.6281 24.0744L22.0282 26.7686L19.6281 29.463C19.2664 29.8692 19.3023 30.4918 19.7085 30.8535Z" fill="#1EA69A"/>
<path d="M10.066 22.684C9.65977 22.3221 9.03741 22.3584 8.67559 22.7643L5.91436 25.864C5.45811 26.3714 5.45811 27.1661 5.91123 27.6699L8.67569 30.7731C8.87032 30.9917 9.14024 31.1029 9.41153 31.1029C9.64454 31.1029 9.87862 31.0207 10.0662 30.8535C10.4725 30.4917 10.5084 29.8691 10.1466 29.4631L7.74649 26.7688L10.1466 24.0745C10.5082 23.6682 10.4723 23.0457 10.066 22.684Z" fill="#1EA69A"/>
<path d="M47.7921 33.1573H47.4265C47.235 32.537 46.9868 31.9382 46.6841 31.3659L46.945 31.1041C47.3617 30.6899 47.5917 30.1369 47.5926 29.5469C47.5935 28.9555 47.3643 28.4002 46.9471 27.9831L46.4387 27.475V6.49844C46.4387 3.56103 44.3658 1.17139 41.8178 1.17139H4.6209C2.07285 1.17139 0 3.56103 0 6.49844V34.0231C0 36.9605 2.07285 39.3502 4.6209 39.3502H10.3988C10.9427 39.3502 11.3836 38.9093 11.3836 38.3654C11.3836 37.8216 10.9427 37.3807 10.3988 37.3807H4.6209C3.18379 37.3807 1.96963 35.8431 1.96963 34.0232V16.1566H44.4689V26.1083C44.3567 26.091 44.2431 26.0797 44.1273 26.0797C44.1262 26.0797 44.125 26.0797 44.1239 26.0797C43.5339 26.0807 42.9809 26.3104 42.5699 26.7235L42.3037 26.9886C41.7194 26.6799 41.1109 26.4288 40.4835 26.2371V25.8863C40.4835 24.6691 39.4931 23.679 38.2756 23.679H36.4935C35.2775 23.679 34.2884 24.6691 34.2884 25.8863V26.2611C33.6728 26.4546 33.0783 26.7035 32.5102 27.0059L32.2551 26.7516C31.8408 26.3353 31.2877 26.1054 30.6977 26.1045C30.6966 26.1045 30.6955 26.1045 30.6943 26.1045C30.1042 26.1045 29.5501 26.3335 29.1338 26.7495L27.8747 28.008C27.4575 28.425 27.2283 28.9804 27.2292 29.5717C27.2301 30.1617 27.46 30.7147 27.8735 31.1257L28.1455 31.3984C27.8503 31.9619 27.6078 32.5497 27.4202 33.1571H27.0462C25.8302 33.1571 24.841 34.146 24.841 35.3616V37.1455C24.841 37.2248 24.8454 37.3031 24.8536 37.3803H19.1236C18.5798 37.3803 18.1389 37.8212 18.1389 38.365C18.1389 38.9089 18.5798 39.3498 19.1236 39.3498H27.0461H27.4239C27.6144 39.963 27.8605 40.5555 28.1608 41.1227L27.8947 41.3876C27.038 42.2489 27.0388 43.6473 27.8968 44.5046L29.1565 45.7639C29.5708 46.1802 30.1239 46.4101 30.714 46.4109H30.7172C31.3074 46.4109 31.8615 46.1819 32.2778 45.7658L32.5416 45.5022C33.1139 45.8039 33.7089 46.0504 34.3214 46.2397V46.6209C34.3214 47.8381 35.3105 48.8282 36.5266 48.8282H38.3114C39.5273 48.8282 40.5165 47.8381 40.5165 46.6209V46.2421C41.1348 46.0514 41.7322 45.8039 42.3038 45.5021L42.5664 45.7638C42.9806 46.1802 43.5336 46.41 44.1236 46.4109H44.127C44.7172 46.4109 45.2713 46.1819 45.6884 45.7651L46.9447 44.5066C47.3614 44.0925 47.5914 43.5395 47.5923 42.9494C47.5932 42.358 47.364 41.8027 46.9467 41.3856L46.6839 41.1229C46.9836 40.5553 47.2296 39.9624 47.4197 39.3499H47.7919C49.0094 39.3499 49.9998 38.361 49.9998 37.1455V35.3616C50 34.1462 49.0096 33.1573 47.7921 33.1573ZM1.96963 14.187V6.49844C1.96963 4.67861 3.18379 3.14102 4.6209 3.14102H41.8178C43.2549 3.14102 44.469 4.67861 44.469 6.49844V14.1871H1.96963V14.187ZM48.0304 37.1457C48.0304 37.2708 47.919 37.3805 47.792 37.3805H46.6658C46.2066 37.3805 45.8084 37.6978 45.7059 38.1453C45.4932 39.0735 45.1278 39.9538 44.6199 40.7619C44.3753 41.1511 44.4324 41.6577 44.7576 41.9826L45.5545 42.779C45.6141 42.8386 45.6229 42.9097 45.6229 42.9468C45.6228 42.9911 45.6112 43.0555 45.5537 43.1125L44.2955 44.3729C44.2358 44.4325 44.1646 44.4415 44.1271 44.4415C44.1271 44.4415 44.127 44.4415 44.127 44.4415C44.0822 44.4415 44.0177 44.4299 43.96 44.3718L43.1602 43.5753C42.8349 43.2514 42.3292 43.1952 41.9408 43.4394C41.1315 43.9484 40.2476 44.3144 39.3133 44.527C38.8651 44.6291 38.5471 45.0275 38.5471 45.4873V46.6212C38.5471 46.7478 38.437 46.8589 38.3116 46.8589H36.5268C36.4013 46.8589 36.2912 46.7479 36.2912 46.6212V45.4845C36.2912 45.0243 35.9725 44.6254 35.5236 44.5239C34.6013 44.3153 33.7188 43.95 32.9011 43.4383C32.7399 43.3374 32.5589 43.2882 32.3789 43.2882C32.1245 43.2882 31.8724 43.3865 31.6824 43.5766L30.8856 44.3729C30.826 44.4325 30.7548 44.4415 30.7173 44.4415C30.7172 44.4415 30.7171 44.4415 30.717 44.4415C30.6724 44.4415 30.6077 44.4299 30.5512 44.373L29.2894 43.1118C29.201 43.0235 29.202 42.8671 29.2882 42.7804L30.0879 41.9839C30.4146 41.6585 30.4718 41.1501 30.2256 40.7603C29.7169 39.9548 29.3511 39.0751 29.1382 38.1456C29.0356 37.698 28.6374 37.3807 28.1781 37.3807H27.0463C26.9187 37.3807 26.8107 37.2731 26.8107 37.1459V35.362C26.8107 35.2348 26.9187 35.1271 27.0463 35.1271H28.1753C28.635 35.1271 29.0336 34.8091 29.1356 34.3609C29.3458 33.4374 29.7069 32.5613 30.209 31.7568C30.4514 31.3685 30.3941 30.8643 30.0708 30.54L29.2651 29.732C29.2104 29.6777 29.1989 29.6134 29.1988 29.569C29.1988 29.5319 29.2076 29.4608 29.2672 29.4014L30.5262 28.143C30.5858 28.0834 30.657 28.0744 30.6945 28.0744H30.6948C30.7395 28.0745 30.8041 28.086 30.8618 28.1441L31.656 28.9352C31.9822 29.2601 32.4897 29.3157 32.8782 29.0692C33.6829 28.5591 34.5643 28.1895 35.4977 27.9711C35.943 27.8669 36.2579 27.4696 36.2579 27.0122V25.8866C36.2579 25.7578 36.3657 25.6489 36.4934 25.6489H38.2755C38.4047 25.6489 38.5139 25.7578 38.5139 25.8866V26.9956C38.5139 27.457 38.8342 27.8565 39.2847 27.9568C40.2217 28.1655 41.1156 28.5341 41.9417 29.0523C42.3299 29.2957 42.8351 29.2395 43.1601 28.9158L43.9631 28.116C44.0176 28.0612 44.0821 28.0497 44.1268 28.0496H44.127C44.1646 28.0496 44.2357 28.0586 44.2953 28.1182L45.5544 29.3765C45.614 29.436 45.6228 29.5071 45.6228 29.5442C45.6227 29.5886 45.6111 29.6529 45.5532 29.7104L44.7562 30.5098C44.4317 30.8353 44.3755 31.3419 44.6207 31.7306C45.1306 32.5389 45.4974 33.424 45.711 34.3613C45.8132 34.8094 46.2116 35.1272 46.6713 35.1272H47.792C47.9189 35.1272 48.0304 35.2371 48.0304 35.3621V37.1457Z" fill="#1EA69A"/>
<path d="M37.4206 30.2395C34.1021 30.2395 31.4023 32.9381 31.4023 36.2552C31.4023 39.5707 34.1021 42.2682 37.4206 42.2682C40.7377 42.2682 43.4362 39.5708 43.4362 36.2552C43.4362 32.9382 40.7377 30.2395 37.4206 30.2395ZM37.4206 40.2986C35.1882 40.2986 33.3719 38.4847 33.3719 36.2552C33.3719 34.0242 35.1882 32.2091 37.4206 32.2091C39.6516 32.2091 41.4666 34.0242 41.4666 36.2552C41.4666 38.4847 39.6515 40.2986 37.4206 40.2986Z" fill="#1EA69A"/>
<path d="M14.7904 37.3806H14.7711C14.2272 37.3806 13.7863 37.8215 13.7863 38.3654C13.7863 38.9092 14.2272 39.3501 14.7711 39.3501H14.7904C15.3343 39.3501 15.7752 38.9092 15.7752 38.3654C15.7752 37.8215 15.3343 37.3806 14.7904 37.3806Z" fill="#1EA69A"/>
</svg>
