<svg width="80" height="80" viewBox="0 0 80 80" fill="none" xmlns="http://www.w3.org/2000/svg">
<path d="M25.7726 53.75L25.559 53.3229C25.2494 52.6985 24.7711 52.1734 24.1783 51.807C23.5854 51.4406 22.9018 51.2477 22.2049 51.25H17.7951C17.0982 51.2477 16.4146 51.4406 15.8217 51.807C15.2289 52.1734 14.7506 52.6985 14.441 53.3229L14.2274 53.75H13.75C12.7558 53.7512 11.8026 54.1466 11.0996 54.8496C10.3966 55.5526 10.0011 56.5058 10 57.5V65C10.0011 65.9942 10.3966 66.9474 11.0996 67.6504C11.8026 68.3534 12.7558 68.7489 13.75 68.75H26.25C27.2442 68.7489 28.1974 68.3534 28.9004 67.6504C29.6034 66.9474 29.9989 65.9942 30 65V57.5C29.9989 56.5058 29.6034 55.5526 28.9004 54.8496C28.1974 54.1466 27.2442 53.7512 26.25 53.75H25.7726ZM27.5 57.5V65C27.4996 65.3314 27.3678 65.6491 27.1335 65.8835C26.8991 66.1178 26.5814 66.2496 26.25 66.25H13.75C13.4186 66.2496 13.1009 66.1178 12.8665 65.8835C12.6322 65.6491 12.5004 65.3314 12.5 65V57.5C12.5004 57.1686 12.6322 56.8509 12.8665 56.6165C13.1009 56.3822 13.4186 56.2504 13.75 56.25H15.7726L16.677 54.4411C16.7802 54.2329 16.9396 54.0579 17.1373 53.9357C17.3349 53.8136 17.5628 53.7492 17.7951 53.75H22.2049C22.4372 53.7492 22.6651 53.8136 22.8627 53.9357C23.0604 54.0579 23.2198 54.2329 23.323 54.4411L24.2274 56.25H26.25C26.5814 56.2504 26.8991 56.3822 27.1335 56.6165C27.3678 56.8509 27.4996 57.1686 27.5 57.5Z" fill="url(#paint0_linear_163_669)"/>
<path d="M60 42.5H52.5V45H60C62.9667 45 65.8668 45.8797 68.3336 47.528C70.8003 49.1762 72.7229 51.5189 73.8582 54.2597C74.9935 57.0006 75.2906 60.0166 74.7118 62.9264C74.133 65.8361 72.7044 68.5088 70.6066 70.6066C68.5088 72.7044 65.8361 74.133 62.9264 74.7118C60.0166 75.2906 57.0006 74.9935 54.2597 73.8582C51.5189 72.7229 49.1762 70.8003 47.528 68.3336C45.8797 65.8668 45 62.9667 45 60V55H42.5V60C42.5 63.4612 43.5264 66.8446 45.4493 69.7225C47.3722 72.6003 50.1053 74.8434 53.303 76.1679C56.5007 77.4924 60.0194 77.839 63.4141 77.1637C66.8088 76.4885 69.927 74.8218 72.3744 72.3744C74.8218 69.927 76.4885 66.8088 77.1637 63.4141C77.839 60.0194 77.4924 56.5007 76.1679 53.303C74.8434 50.1053 72.6003 47.3722 69.7225 45.4493C66.8446 43.5264 63.4612 42.5 60 42.5Z" fill="url(#paint1_linear_163_669)"/>
<path d="M35 60C35 62.9667 34.1203 65.8668 32.472 68.3336C30.8238 70.8003 28.4811 72.7229 25.7403 73.8582C22.9994 74.9935 19.9834 75.2906 17.0737 74.7118C14.1639 74.133 11.4912 72.7044 9.39341 70.6066C7.29562 68.5088 5.86701 65.8361 5.28823 62.9264C4.70945 60.0166 5.0065 57.0006 6.14181 54.2597C7.27713 51.5189 9.19972 49.1762 11.6665 47.528C14.1332 45.8797 17.0333 45 20 45H27.5V42.5H20C16.5388 42.5 13.1554 43.5264 10.2775 45.4493C7.39967 47.3722 5.15665 50.1053 3.83212 53.303C2.50758 56.5007 2.16102 60.0194 2.83627 63.4141C3.51151 66.8088 5.17822 69.927 7.62564 72.3744C10.0731 74.8218 13.1913 76.4885 16.5859 77.1637C19.9806 77.839 23.4993 77.4924 26.697 76.1679C29.8947 74.8434 32.6278 72.6003 34.5507 69.7225C36.4736 66.8446 37.5 63.4612 37.5 60V55H35V60Z" fill="url(#paint2_linear_163_669)"/>
<path d="M20 37.5H32.5V35H20C17.0333 35 14.1332 34.1203 11.6665 32.472C9.19972 30.8238 7.27713 28.4811 6.14181 25.7403C5.0065 22.9994 4.70945 19.9834 5.28823 17.0737C5.86701 14.1639 7.29562 11.4912 9.39341 9.39341C11.4912 7.29562 14.1639 5.86701 17.0737 5.28823C19.9834 4.70945 22.9994 5.0065 25.7403 6.14181C28.4811 7.27713 30.8238 9.19972 32.472 11.6665C34.1203 14.1332 35 17.0333 35 20V25H37.5V20C37.5 16.5388 36.4736 13.1554 34.5507 10.2775C32.6278 7.39967 29.8947 5.15665 26.697 3.83212C23.4993 2.50758 19.9806 2.16102 16.5859 2.83627C13.1913 3.51151 10.0731 5.17822 7.62564 7.62564C5.17822 10.0731 3.51151 13.1913 2.83627 16.5859C2.16102 19.9806 2.50758 23.4993 3.83212 26.697C5.15665 29.8947 7.39967 32.6278 10.2775 34.5507C13.1554 36.4736 16.5388 37.5 20 37.5Z" fill="url(#paint3_linear_163_669)"/>
<path d="M45 20C45 17.0333 45.8797 14.1332 47.528 11.6665C49.1762 9.19972 51.5189 7.27713 54.2597 6.14181C57.0006 5.0065 60.0166 4.70945 62.9264 5.28823C65.8361 5.86701 68.5088 7.29562 70.6066 9.39341C72.7044 11.4912 74.133 14.1639 74.7118 17.0737C75.2906 19.9834 74.9935 22.9994 73.8582 25.7403C72.7229 28.4811 70.8003 30.8238 68.3336 32.472C65.8668 34.1203 62.9667 35 60 35H47.5V37.5H60C63.4612 37.5 66.8446 36.4736 69.7225 34.5507C72.6003 32.6278 74.8434 29.8947 76.1679 26.697C77.4924 23.4993 77.839 19.9806 77.1637 16.5859C76.4885 13.1913 74.8218 10.0731 72.3744 7.62564C69.927 5.17822 66.8088 3.51151 63.4141 2.83627C60.0194 2.16102 56.5007 2.50758 53.303 3.83212C50.1053 5.15665 47.3722 7.39967 45.4493 10.2775C43.5264 13.1554 42.5 16.5388 42.5 20V25H45V20Z" fill="url(#paint4_linear_163_669)"/>
<path d="M35 32.5V35.1146C34.999 36.1018 35.2913 37.0671 35.8398 37.888L36.8021 39.3317L32.5642 40.7443C31.8171 40.9926 31.1673 41.47 30.707 42.1086C30.2467 42.7472 29.9993 43.5147 30 44.3019V52.5H50V44.3019C50.0007 43.5147 49.7533 42.7472 49.293 42.1086C48.8327 41.47 48.1829 40.9926 47.4358 40.7443L43.1979 39.3317L44.1602 37.888C44.7087 37.0671 45.001 36.1018 45 35.1146V32.5C45 31.1739 44.4732 29.9021 43.5355 28.9645C42.5979 28.0268 41.3261 27.5 40 27.5C38.6739 27.5 37.4022 28.0268 36.4645 28.9645C35.5268 29.9021 35 31.1739 35 32.5ZM46.6453 43.1162C46.8943 43.1989 47.1109 43.358 47.2644 43.5708C47.4178 43.7837 47.5003 44.0395 47.5 44.3019V50H32.5V44.3019C32.4997 44.0395 32.5822 43.7837 32.7356 43.5708C32.8891 43.358 33.1057 43.1989 33.3547 43.1162L40 40.9009L46.6453 43.1162ZM37.5 32.5C37.5 31.837 37.7634 31.2011 38.2322 30.7322C38.7011 30.2634 39.337 30 40 30C40.663 30 41.2989 30.2634 41.7678 30.7322C42.2366 31.2011 42.5 31.837 42.5 32.5V35.1146C42.5005 35.6082 42.3543 36.0909 42.0802 36.5013L40 39.6216L37.9198 36.5013C37.6457 36.0909 37.4995 35.6082 37.5 35.1146V32.5Z" fill="url(#paint5_linear_163_669)"/>
<path d="M20 56.25C19.2583 56.25 18.5333 56.4699 17.9166 56.882C17.2999 57.294 16.8193 57.8797 16.5355 58.5649C16.2516 59.2501 16.1774 60.0041 16.3221 60.7316C16.4668 61.459 16.8239 62.1272 17.3484 62.6516C17.8728 63.1761 18.541 63.5332 19.2684 63.6779C19.9958 63.8226 20.7498 63.7483 21.4351 63.4645C22.1203 63.1807 22.706 62.7 23.118 62.0834C23.5301 61.4667 23.75 60.7417 23.75 60C23.7489 59.0058 23.3534 58.0526 22.6504 57.3496C21.9474 56.6466 20.9942 56.2511 20 56.25ZM20 61.25C19.7528 61.25 19.5111 61.1767 19.3055 61.0393C19.1 60.902 18.9398 60.7067 18.8452 60.4783C18.7505 60.2499 18.7258 59.9986 18.774 59.7561C18.8222 59.5136 18.9413 59.2909 19.1161 59.1161C19.2909 58.9413 19.5137 58.8222 19.7561 58.774C19.9986 58.7258 20.2499 58.7505 20.4784 58.8451C20.7068 58.9397 20.902 59.1 21.0393 59.3055C21.1767 59.5111 21.25 59.7528 21.25 60C21.2496 60.3314 21.1178 60.6491 20.8835 60.8834C20.6491 61.1178 20.3314 61.2496 20 61.25Z" fill="url(#paint6_linear_163_669)"/>
<path d="M59.9999 52.5V50H55.3489L52.8445 57.5132C52.7305 57.5054 52.6158 57.5 52.4999 57.5C51.2958 57.4983 50.1315 57.9304 49.2202 58.7173C48.3088 59.5042 47.7116 60.5931 47.5378 61.7845C47.364 62.976 47.6254 64.1901 48.2739 65.2045C48.9225 66.219 49.9149 66.9657 51.0693 67.3079C52.2237 67.6502 53.4627 67.565 54.5594 67.068C55.6561 66.5711 56.537 65.6956 57.0407 64.602C57.5443 63.5083 57.6371 62.2699 57.302 61.1134C56.9668 59.957 56.2262 58.96 55.2157 58.3052L55.6505 57.0009L62.5348 61.9182C62.4233 62.8716 62.5886 63.8368 63.0109 64.6988C63.4332 65.5607 64.0947 66.2828 64.9164 66.7789C65.7381 67.275 66.6852 67.5241 67.6446 67.4964C68.6041 67.4687 69.5352 67.1654 70.3269 66.6228C71.1186 66.0801 71.7374 65.321 72.1093 64.4362C72.4812 63.5513 72.5905 62.5781 72.4242 61.6328C72.2579 60.6875 71.823 59.81 71.1715 59.1052C70.5199 58.4004 69.6792 57.8981 68.7498 57.6582V50H64.9998V52.5H66.2498V54.8688L56.6802 53.9119L57.1508 52.5H59.9999ZM52.4999 65C51.8804 65 51.283 64.77 50.8235 64.3546C50.3639 63.9392 50.075 63.3681 50.0126 62.7518C49.9502 62.1355 50.1188 61.518 50.4857 61.0189C50.8527 60.5198 51.3918 60.1748 51.9987 60.0506L51.314 62.1046L53.6857 62.8954L54.369 60.8455C54.689 61.2053 54.8981 61.6501 54.971 62.1261C55.044 62.6021 54.9777 63.089 54.7801 63.5282C54.5825 63.9673 54.2621 64.34 53.8575 64.6011C53.4529 64.8623 52.9814 65.0008 52.4999 65ZM67.4998 60C67.9943 60 68.4776 60.1466 68.8888 60.4213C69.2999 60.696 69.6203 61.0865 69.8095 61.5433C69.9988 62.0001 70.0483 62.5028 69.9518 62.9877C69.8553 63.4727 69.6172 63.9181 69.2676 64.2678C68.918 64.6174 68.4725 64.8555 67.9876 64.952C67.5026 65.0484 67 64.9989 66.5431 64.8097C66.0863 64.6205 65.6959 64.3 65.4212 63.8889C65.1465 63.4778 64.9998 62.9945 64.9998 62.5C65.0006 61.8372 65.2642 61.2017 65.7329 60.7331C66.2016 60.2644 66.837 60.0008 67.4998 60ZM66.2498 57.3812V57.6582C65.1421 57.9464 64.1662 58.6049 63.4845 59.5243L59.5454 56.7107L66.2498 57.3812Z" fill="url(#paint7_linear_163_669)"/>
<path d="M25.0002 10H15.0002C14.006 10.0011 13.0528 10.3966 12.3498 11.0996C11.6468 11.8026 11.2513 12.7558 11.2502 13.75V22.3761L10.3234 27.0097C10.2509 27.3724 10.2598 27.7467 10.3494 28.1056C10.4389 28.4644 10.6071 28.799 10.8416 29.085C11.0761 29.371 11.3711 29.6015 11.7054 29.7597C12.0398 29.9179 12.405 30 12.7749 30H27.2255C27.5953 30 27.9606 29.9179 28.295 29.7597C28.6293 29.6014 28.9244 29.371 29.1589 29.0849C29.3934 28.7989 29.5615 28.4643 29.6511 28.1055C29.7406 27.7466 29.7495 27.3723 29.6769 27.0096L28.7502 22.3761V13.75C28.7491 12.7558 28.3536 11.8026 27.6506 11.0996C26.9476 10.3966 25.9944 10.0011 25.0002 10ZM13.7502 13.75C13.7506 13.4186 13.8824 13.1009 14.1167 12.8665C14.3511 12.6322 14.6688 12.5004 15.0002 12.5H25.0002C25.3316 12.5004 25.6493 12.6322 25.8837 12.8665C26.118 13.1009 26.2498 13.4186 26.2502 13.75V21.25H13.7502V13.75ZM27.2255 27.5H12.7749L13.525 23.75H26.476L27.2283 27.4998L27.2255 27.5Z" fill="url(#paint8_linear_163_669)"/>
<path d="M62.5002 8.75V13.0622C61.6226 12.8474 60.7045 12.8623 59.8344 13.1054C58.9642 13.3485 58.1713 13.8117 57.5322 14.4502L57.0595 14.9229C53.3402 18.6315 50.464 23.0981 48.6269 28.0186C48.4533 28.48 48.42 28.9824 48.5312 29.4626C48.6425 29.9428 48.8932 30.3794 49.252 30.7174C49.6107 31.0554 50.0614 31.2798 50.5474 31.3623C51.0334 31.4448 51.5329 31.3817 51.9831 31.181L54.478 30.0722C58.6056 28.2413 62.3593 25.6633 65.5499 22.4681C66.1885 21.8289 66.6516 21.036 66.8947 20.1659C67.1378 19.2957 67.1527 18.3776 66.9379 17.5H71.2502V15H66.768L69.6341 12.1339L67.8663 10.3661L65.0002 13.2322V8.75H62.5002ZM63.7822 20.7002C60.8084 23.6783 57.3098 26.0811 53.4627 27.7876L50.9681 28.8956C51.8764 26.4693 53.0574 24.1541 54.4886 21.9945L56.8068 23.54L58.1936 21.46L55.9461 19.9616C56.4518 19.3089 56.9819 18.6729 57.5361 18.0537L59.1163 19.6339L60.8841 17.8661L59.268 16.25L59.2999 16.2181C59.8176 15.7016 60.5189 15.4115 61.2502 15.4115C61.9815 15.4115 62.6829 15.7016 63.2005 16.2181L63.7822 16.7998C64.2986 17.3174 64.5887 18.0188 64.5887 18.75C64.5887 19.4812 64.2986 20.1826 63.7822 20.7002Z" fill="url(#paint9_linear_163_669)"/>
<defs>
<linearGradient id="paint0_linear_163_669" x1="20" y1="51.25" x2="20" y2="68.75" gradientUnits="userSpaceOnUse">
<stop stop-color="#FD1E43"/>
<stop offset="1" stop-color="#F4197D"/>
</linearGradient>
<linearGradient id="paint1_linear_163_669" x1="60" y1="42.5" x2="60" y2="77.5" gradientUnits="userSpaceOnUse">
<stop stop-color="#FD1E43"/>
<stop offset="1" stop-color="#F4197D"/>
</linearGradient>
<linearGradient id="paint2_linear_163_669" x1="20" y1="42.5" x2="20" y2="77.5" gradientUnits="userSpaceOnUse">
<stop stop-color="#FD1E43"/>
<stop offset="1" stop-color="#F4197D"/>
</linearGradient>
<linearGradient id="paint3_linear_163_669" x1="20" y1="2.5" x2="20" y2="37.5" gradientUnits="userSpaceOnUse">
<stop stop-color="#FD1E43"/>
<stop offset="1" stop-color="#F4197D"/>
</linearGradient>
<linearGradient id="paint4_linear_163_669" x1="60" y1="2.5" x2="60" y2="37.5" gradientUnits="userSpaceOnUse">
<stop stop-color="#FD1E43"/>
<stop offset="1" stop-color="#F4197D"/>
</linearGradient>
<linearGradient id="paint5_linear_163_669" x1="40" y1="27.5" x2="40" y2="52.5" gradientUnits="userSpaceOnUse">
<stop stop-color="#FD1E43"/>
<stop offset="1" stop-color="#F4197D"/>
</linearGradient>
<linearGradient id="paint6_linear_163_669" x1="20" y1="56.25" x2="20" y2="63.75" gradientUnits="userSpaceOnUse">
<stop stop-color="#FD1E43"/>
<stop offset="1" stop-color="#F4197D"/>
</linearGradient>
<linearGradient id="paint7_linear_163_669" x1="59.9926" y1="50" x2="59.9926" y2="67.5145" gradientUnits="userSpaceOnUse">
<stop stop-color="#FD1E43"/>
<stop offset="1" stop-color="#F4197D"/>
</linearGradient>
<linearGradient id="paint8_linear_163_669" x1="20.0002" y1="10" x2="20.0002" y2="30" gradientUnits="userSpaceOnUse">
<stop stop-color="#FD1E43"/>
<stop offset="1" stop-color="#F4197D"/>
</linearGradient>
<linearGradient id="paint9_linear_163_669" x1="59.8585" y1="8.75" x2="59.8585" y2="31.3976" gradientUnits="userSpaceOnUse">
<stop stop-color="#FD1E43"/>
<stop offset="1" stop-color="#F4197D"/>
</linearGradient>
</defs>
</svg>
