<svg width="80" height="80" viewBox="0 0 80 80" fill="none" xmlns="http://www.w3.org/2000/svg">
<g clip-path="url(#clip0_163_483)">
<path d="M23.0506 34.1731H74.5324C76.0424 34.1731 77.4043 34.7887 78.3937 35.7775V35.7868C79.3824 36.7762 79.9987 38.1381 79.9987 39.6387V74.5331C79.9987 76.0331 79.3824 77.4044 78.3937 78.3931C77.4043 79.3831 76.0424 79.9981 74.5324 79.9981H23.0506C21.55 79.9981 20.1787 79.3831 19.19 78.3931C18.2006 77.4044 17.585 76.0419 17.585 74.5331V39.6387C17.585 38.1381 18.2006 36.7668 19.19 35.7775C20.1793 34.7887 21.55 34.1731 23.0506 34.1731ZM74.5324 36.6718H23.0506C22.235 36.6718 21.4975 37.01 20.96 37.5475C20.4218 38.0856 20.0837 38.8231 20.0837 39.6387V74.5331C20.0837 75.3487 20.4218 76.0944 20.96 76.6325C21.4968 77.1694 22.235 77.4994 23.0506 77.4994H74.5324C75.3481 77.4994 76.0937 77.17 76.6318 76.6325C77.1693 76.0944 77.4999 75.3481 77.4999 74.5331V39.6387C77.4999 38.8231 77.1699 38.0775 76.6318 37.5393V37.5481C76.0937 37.0106 75.3481 36.6718 74.5324 36.6718Z" fill="url(#paint0_linear_163_483)"/>
<path d="M38.355 23.7537H59.2375C60.4262 23.7537 61.5187 24.2393 62.3 25.0287C63.0806 25.818 63.5756 26.903 63.5756 28.0912V35.4218V36.6712H62.3256H57.0512H55.8025V35.4218V31.3624H41.7906V35.4224V36.6718H40.5406H35.2662H34.0168V35.4224V28.0912C34.0168 26.903 34.5025 25.8093 35.2831 25.0287C36.0725 24.2393 37.1581 23.7537 38.355 23.7537ZM59.2368 26.2524H38.355C37.8512 26.2524 37.3918 26.4599 37.0531 26.7987C36.7237 27.1287 36.5162 27.588 36.5162 28.0912V34.1724H39.2918V30.1124V28.8637H40.5412H57.0512H58.3012V30.1124V34.173H61.0768V28.0918C61.0768 27.588 60.8687 27.1287 60.5393 26.7993H60.53C60.2 26.4605 59.7406 26.2524 59.2368 26.2524Z" fill="url(#paint1_linear_163_483)"/>
<path d="M13.8025 67.8094C14.4881 67.8094 15.0519 68.3637 15.0519 69.0581C15.0519 69.7431 14.4881 70.3069 13.8025 70.3069H3.74813C2.72438 70.3069 1.7875 69.8819 1.10188 69.2056V69.1969C0.425 68.52 0 67.5837 0 66.5506V3.7475C0 2.72375 0.425 1.78687 1.10188 1.10187C1.77813 0.425 2.715 0 3.74813 0H38.8925C39.4306 0 39.9338 0.104375 40.4031 0.3125C40.8631 0.520625 41.2794 0.82375 41.6525 1.21437V1.22312V1.21437L51.0831 11.3044C51.1088 11.3306 51.1263 11.3562 51.1525 11.3825C51.455 11.7206 51.6725 12.0944 51.8288 12.4844C51.985 12.91 52.0719 13.3606 52.0719 13.8381V19.9631C52.0719 20.6569 51.5081 21.2125 50.8225 21.2125C50.1288 21.2125 49.5644 20.6569 49.5644 19.9631V13.8381C49.5644 13.6644 49.5475 13.5087 49.495 13.3694C49.4431 13.2569 49.3825 13.1525 49.3044 13.0481C49.2869 13.0312 49.2688 13.0225 49.2519 13.005L39.83 2.915C39.6994 2.77625 39.5525 2.67187 39.3963 2.59375C39.2494 2.53312 39.0844 2.49875 38.8931 2.49875H3.74813C3.41 2.49875 3.0975 2.6375 2.87188 2.87187L2.86313 2.86312C2.6375 3.08812 2.49875 3.40937 2.49875 3.7475V66.5506C2.49875 66.8975 2.6375 67.21 2.86313 67.4356L2.87188 67.4444C3.0975 67.6619 3.40938 67.8094 3.74813 67.8094H13.8025Z" fill="url(#paint2_linear_163_483)"/>
<path d="M44.2631 56.9476L22.8256 52.8776C21.3768 52.6089 20.04 51.9757 19.0781 51.0126C18.1575 50.0932 17.585 48.8876 17.585 47.4382H20.0837C20.0837 48.1757 20.3793 48.7832 20.8475 49.252C21.4462 49.8414 22.3225 50.2495 23.2856 50.4314L44.7231 54.5001L44.2631 56.9476ZM79.9981 47.4382C79.9981 48.887 79.4256 50.0845 78.5056 51.0039V51.0126C77.5424 51.9757 76.2068 52.6095 74.7668 52.8776L53.3287 56.9814L52.8606 54.5351L74.2981 50.4314C75.2699 50.2407 76.1462 49.842 76.7443 49.252C77.2131 48.7832 77.4993 48.1751 77.4993 47.4382H79.9981Z" fill="url(#paint3_linear_163_483)"/>
<path d="M31.8394 11.165C32.5332 11.165 33.0888 11.7207 33.0888 12.4144C33.0888 13.1 32.5332 13.6638 31.8394 13.6638H14.4019C13.7076 13.6638 13.1519 13.1 13.1519 12.4144C13.1519 11.7207 13.7076 11.165 14.4019 11.165H31.8394ZM8.44943 11.165C9.14381 11.165 9.70818 11.7207 9.70818 12.4144C9.70818 13.1 9.14443 13.6638 8.44943 13.6638H7.51318C6.82693 13.6638 6.26318 13.1 6.26318 12.4144C6.26318 11.7207 6.82693 11.165 7.51318 11.165H8.44943Z" fill="url(#paint4_linear_163_483)"/>
<path d="M23.6232 22.5044C24.3088 22.5044 24.8726 23.0675 24.8726 23.7538C24.8726 24.4475 24.3088 25.0025 23.6232 25.0025H14.4013C13.7076 25.0025 13.1519 24.4475 13.1519 23.7538C13.1519 23.0681 13.7076 22.5044 14.4013 22.5044H23.6232ZM8.45006 22.5044C9.14381 22.5044 9.70818 23.0675 9.70818 23.7538C9.70818 24.4475 9.14443 25.0025 8.45006 25.0025H7.51318C6.82756 25.0025 6.26318 24.4475 6.26318 23.7538C6.26318 23.0681 6.82693 22.5044 7.51318 22.5044H8.45006Z" fill="url(#paint5_linear_163_483)"/>
<path d="M31.8394 16.8386C32.5332 16.8386 33.0888 17.3942 33.0888 18.088C33.0888 18.773 32.5332 19.3374 31.8394 19.3374H14.4019C13.7076 19.3374 13.1519 18.7736 13.1519 18.088C13.1519 17.3942 13.7076 16.8386 14.4019 16.8386H31.8394ZM8.44943 16.8386C9.14381 16.8386 9.70818 17.3942 9.70818 18.088C9.70818 18.773 9.14443 19.3374 8.44943 19.3374H7.51318C6.82693 19.3374 6.26318 18.7736 6.26318 18.088C6.26318 17.3942 6.82693 16.8386 7.51318 16.8386H8.44943Z" fill="url(#paint6_linear_163_483)"/>
<path d="M40.1768 0.459375L51.55 12.805C52.01 13.3081 51.9843 14.0975 51.4718 14.5656C51.2375 14.7825 50.935 14.8956 50.6306 14.8956H42.7968C41.4612 14.8956 40.2549 14.3487 39.3787 13.4731C39.3531 13.4469 39.3262 13.4212 39.3006 13.395C38.4674 12.5269 37.9556 11.3475 37.9556 10.0544V1.24937C37.9556 0.56375 38.5112 0 39.2056 0C39.5949 0 39.9424 0.181875 40.1768 0.459375ZM47.7856 12.3975L40.4543 4.45V10.055C40.4543 10.6794 40.6974 11.2431 41.0881 11.6594C41.1049 11.6769 41.1231 11.6944 41.1406 11.7119C41.5656 12.1369 42.1549 12.3969 42.7968 12.3969L47.7856 12.3975Z" fill="url(#paint7_linear_163_483)"/>
<path d="M56.808 6.7319C56.6693 7.40815 56.0105 7.8419 55.3337 7.69503C54.6568 7.55565 54.223 6.8969 54.3618 6.22815L54.8393 3.95503L55.4637 0.996904C55.5849 0.407529 56.1055 -0.0012207 56.6868 -0.0012207H58.873H61.0593C61.6924 -0.0012207 62.2136 0.467529 62.2999 1.08315L63.2193 5.45565C63.8611 5.63815 64.4861 5.85503 65.093 6.10628C65.7093 6.35815 66.3074 6.65315 66.8799 6.9744L70.7061 4.47565C71.2005 4.1544 71.8511 4.23253 72.2586 4.64065H72.268L73.8124 6.18503C73.8293 6.21128 73.8555 6.22878 73.8736 6.2544L75.3568 7.73815C75.7899 8.16315 75.8343 8.84003 75.4961 9.32565L73.023 13.1163C73.3524 13.6894 73.6393 14.2875 73.8993 14.9038C74.1424 15.5107 74.3593 16.1357 74.5411 16.7775L79.0005 17.7232C79.6168 17.8444 80.033 18.4 79.9986 19.0069V21.125V23.3113C79.9986 23.9444 79.5305 24.4738 78.9143 24.5519L74.5418 25.4713C74.3599 26.1219 74.1424 26.7469 73.8999 27.345C73.5355 28.2213 73.1018 29.0538 72.6074 29.8269C72.2436 30.4163 71.4711 30.59 70.8811 30.2169C70.2999 29.8438 70.1268 29.0719 70.4993 28.49C70.9249 27.8225 71.2893 27.1194 71.593 26.3913C71.888 25.6794 72.1218 24.9506 72.2955 24.205C72.3736 23.7106 72.7549 23.3025 73.2674 23.19L77.4999 22.305V21.125H77.5086V19.9538L73.2661 19.06C72.8068 18.965 72.4161 18.6088 72.303 18.1144C72.138 17.3425 71.8955 16.5963 71.5918 15.8594C71.288 15.1307 70.9236 14.4275 70.498 13.76C70.2468 13.3607 70.238 12.84 70.5068 12.415L72.8761 8.78878L72.1118 8.0169C72.0861 8.00003 72.0693 7.9819 72.0424 7.95565L71.2099 7.12315L67.6611 9.4394C67.2536 9.75128 66.6893 9.78628 66.2393 9.50003C65.5711 9.07503 64.8686 8.71065 64.1399 8.4069C63.428 8.1119 62.6911 7.87753 61.9449 7.7044C61.4593 7.62628 61.0424 7.25315 60.9386 6.73253L60.0436 2.49815H58.873H57.6924L57.2849 4.45878L56.808 6.7319ZM58.873 13.3863C58.1786 13.3863 57.623 12.8307 57.623 12.1369C57.623 11.4432 58.1786 10.8875 58.873 10.8875C61.7005 10.8875 64.2599 12.0332 66.1168 13.8894C67.9649 15.7375 69.1099 18.2969 69.1099 21.125C69.1099 21.8713 69.0318 22.6088 68.8755 23.3113C68.7193 24.0306 68.4849 24.7257 68.1824 25.3932C67.8955 26.0182 67.158 26.2957 66.5249 26.0094C65.9005 25.7225 65.6311 24.985 65.918 24.3606C66.143 23.875 66.3168 23.3456 66.438 22.79C66.5511 22.2525 66.6118 21.6969 66.6118 21.1244C66.6118 18.99 65.7443 17.055 64.3474 15.65C62.9418 14.2544 61.0068 13.3863 58.873 13.3863Z" fill="url(#paint8_linear_163_483)"/>
<path d="M44.6711 47.4739H52.9211C53.5723 47.4739 54.1617 47.7426 54.5873 48.167L54.5961 48.1758C55.0217 48.602 55.2898 49.2001 55.2898 49.8508V58.9951C55.2898 60.782 54.5617 62.4045 53.3811 63.5839C52.2105 64.7645 50.5792 65.4933 48.7917 65.4933C47.0042 65.4933 45.3817 64.7645 44.2023 63.5839C43.0305 62.4045 42.293 60.7826 42.293 58.9951V49.8508C42.293 49.2001 42.5623 48.6008 42.9961 48.1758V48.167C43.4298 47.7426 44.0205 47.4739 44.6711 47.4739ZM52.7917 49.9726H44.8011V58.9951C44.8011 60.0876 45.2436 61.0945 45.9723 61.8151C46.7011 62.5439 47.6992 62.9945 48.7917 62.9945C49.8942 62.9945 50.8911 62.5439 51.6198 61.8151C52.3398 61.0951 52.7917 60.0876 52.7917 58.9951V49.9726Z" fill="url(#paint9_linear_163_483)"/>
<path d="M48.7914 60.0788C49.4814 60.0788 50.0407 59.5195 50.0407 58.8295C50.0407 58.1394 49.4814 57.5801 48.7914 57.5801C48.1014 57.5801 47.542 58.1394 47.542 58.8295C47.542 59.5195 48.1014 60.0788 48.7914 60.0788Z" fill="url(#paint10_linear_163_483)"/>
</g>
<defs>
<linearGradient id="paint0_linear_163_483" x1="48.7918" y1="34.1731" x2="48.7918" y2="79.9981" gradientUnits="userSpaceOnUse">
<stop stop-color="#FD1E43"/>
<stop offset="1" stop-color="#F4197D"/>
</linearGradient>
<linearGradient id="paint1_linear_163_483" x1="48.7962" y1="23.7537" x2="48.7962" y2="36.6718" gradientUnits="userSpaceOnUse">
<stop stop-color="#FD1E43"/>
<stop offset="1" stop-color="#F4197D"/>
</linearGradient>
<linearGradient id="paint2_linear_163_483" x1="26.0359" y1="0" x2="26.0359" y2="70.3069" gradientUnits="userSpaceOnUse">
<stop stop-color="#FD1E43"/>
<stop offset="1" stop-color="#F4197D"/>
</linearGradient>
<linearGradient id="paint3_linear_163_483" x1="48.7915" y1="47.4382" x2="48.7915" y2="56.9814" gradientUnits="userSpaceOnUse">
<stop stop-color="#FD1E43"/>
<stop offset="1" stop-color="#F4197D"/>
</linearGradient>
<linearGradient id="paint4_linear_163_483" x1="19.676" y1="11.165" x2="19.676" y2="13.6638" gradientUnits="userSpaceOnUse">
<stop stop-color="#FD1E43"/>
<stop offset="1" stop-color="#F4197D"/>
</linearGradient>
<linearGradient id="paint5_linear_163_483" x1="15.5679" y1="22.5044" x2="15.5679" y2="25.0025" gradientUnits="userSpaceOnUse">
<stop stop-color="#FD1E43"/>
<stop offset="1" stop-color="#F4197D"/>
</linearGradient>
<linearGradient id="paint6_linear_163_483" x1="19.676" y1="16.8386" x2="19.676" y2="19.3374" gradientUnits="userSpaceOnUse">
<stop stop-color="#FD1E43"/>
<stop offset="1" stop-color="#F4197D"/>
</linearGradient>
<linearGradient id="paint7_linear_163_483" x1="44.9161" y1="0" x2="44.9161" y2="14.8956" gradientUnits="userSpaceOnUse">
<stop stop-color="#FD1E43"/>
<stop offset="1" stop-color="#F4197D"/>
</linearGradient>
<linearGradient id="paint8_linear_163_483" x1="67.1683" y1="-0.0012207" x2="67.1683" y2="30.4134" gradientUnits="userSpaceOnUse">
<stop stop-color="#FD1E43"/>
<stop offset="1" stop-color="#F4197D"/>
</linearGradient>
<linearGradient id="paint9_linear_163_483" x1="48.7914" y1="47.4739" x2="48.7914" y2="65.4933" gradientUnits="userSpaceOnUse">
<stop stop-color="#FD1E43"/>
<stop offset="1" stop-color="#F4197D"/>
</linearGradient>
<linearGradient id="paint10_linear_163_483" x1="48.7914" y1="57.5801" x2="48.7914" y2="60.0788" gradientUnits="userSpaceOnUse">
<stop stop-color="#FD1E43"/>
<stop offset="1" stop-color="#F4197D"/>
</linearGradient>
<clipPath id="clip0_163_483">
<rect width="80" height="80" fill="white"/>
</clipPath>
</defs>
</svg>
