<svg width="80" height="80" viewBox="0 0 80 80" fill="none" xmlns="http://www.w3.org/2000/svg">
<g clip-path="url(#clip0_163_638)">
<path d="M78.8611 21.0073C78.8609 21.0073 78.8609 21.0073 78.8607 21.0073L78.8581 21.0047L73.6943 20.2679C72.9685 20.1646 72.4639 19.4924 72.5673 18.7666C72.6169 18.4178 72.8033 18.1032 73.085 17.8918L77.2585 14.7617C77.8451 14.3218 77.9639 13.4898 77.524 12.9033L72.7452 6.53155C72.3053 5.94499 71.4733 5.82618 70.8868 6.26606L66.7146 9.39617C66.1305 9.83937 65.2979 9.72521 64.8547 9.14114C64.6395 8.85756 64.5472 8.49932 64.5987 8.14705L65.3367 2.98329C65.4408 2.25751 64.9368 1.585 64.2112 1.48079C64.2107 1.48079 64.2102 1.48063 64.2097 1.48063L56.33 0.354957C55.6044 0.250753 54.9316 0.754518 54.8274 1.4803C54.8274 1.48046 54.8274 1.48046 54.8274 1.48063L54.0893 6.64438C53.9859 7.37016 53.3138 7.87476 52.588 7.77138C52.2392 7.72177 51.9246 7.53543 51.7132 7.25368L48.5844 3.0802C48.1445 2.49363 47.3126 2.37483 46.726 2.81471L42.737 5.80809C40.9324 5.61628 39.1124 5.61628 37.3078 5.80809C25.4892 7.15893 16.2212 16.5841 15.0691 28.4237C15.0333 28.7994 15.02 29.1724 15.0014 29.5454H14.6032C13.9733 29.5466 13.4309 29.9903 13.305 30.6074L12.3877 34.9694L8.71334 32.4353C8.18601 32.0714 7.47384 32.1363 7.02085 32.5893L3.03852 36.5716C2.58619 37.0244 2.52148 37.7356 2.88454 38.2627L5.40668 41.9305L1.04337 42.8477C0.433081 42.9815 -0.00132441 43.5226 3.03392e-06 44.1473V49.4571C-0.000328827 50.085 0.439553 50.6272 1.05399 50.7566L5.4173 51.6739L2.89516 55.3416C2.5321 55.8688 2.59681 56.58 3.04914 57.0328L7.03147 61.0151C7.48446 61.4681 8.19663 61.533 8.72396 61.1691L12.3917 58.6403L13.3089 63.0036C13.4349 63.6207 13.9773 64.0644 14.6072 64.0656H19.917C20.5448 64.0659 21.0871 63.626 21.2165 63.0116L22.1338 58.6483L25.8015 61.1704C26.3287 61.5335 27.0398 61.4688 27.4927 61.0164L29.5542 58.9483V62.7315C29.5602 64.62 30.5718 66.3621 32.2091 67.3032V74.6785C32.2091 77.611 34.5864 79.9883 37.5188 79.9883H42.8286C45.7611 79.9883 48.1384 77.611 48.1384 74.6785V67.3032C49.7756 66.3621 50.7873 64.62 50.7933 62.7315V57.4775C50.8293 55.2668 51.9858 53.2259 53.8637 52.0589C54.9653 51.3442 56.01 50.5452 56.9884 49.6695L55.2176 47.6916C54.3424 48.4761 53.4072 49.1911 52.4207 49.8301C49.7849 51.4844 48.1714 54.3656 48.1384 57.4775V62.7315C48.1384 64.1978 46.9498 65.3864 45.4835 65.3864H34.864C33.3976 65.3864 32.2091 64.1978 32.2091 62.7315V57.3673C32.1784 54.3144 30.5903 51.4887 27.9984 49.8752C17.4773 43.2642 14.3073 29.376 20.9183 18.8549C25.0201 12.327 32.1787 8.3538 39.8883 8.32625C39.8686 8.37354 39.8512 8.42183 39.8366 8.47094C39.7873 8.8194 39.8785 9.17333 40.0901 9.45458L43.2189 13.6267C43.5488 14.0537 43.5804 14.6401 43.2985 15.1002C43.0271 15.5631 42.5022 15.8157 41.9711 15.7387L36.8073 15.0006C36.0816 14.8966 35.409 15.4005 35.3048 16.1261C35.3048 16.1266 35.3047 16.1271 35.3047 16.1276L34.1777 24.0113C34.0736 24.7369 34.5776 25.4096 35.3032 25.5138C35.3037 25.5138 35.3042 25.514 35.3047 25.514L40.4684 26.252C41.1942 26.3554 41.6988 27.0276 41.5954 27.7534C41.5458 28.1022 41.3595 28.4168 41.0777 28.6282L36.9056 31.7569C36.319 32.1968 36.2002 33.0288 36.6401 33.6154L41.4189 39.9871C41.8588 40.5737 42.6907 40.6925 43.2773 40.2526L47.4508 37.1238C48.0378 36.6847 48.8698 36.8047 49.3089 37.3919C49.5189 37.6729 49.6094 38.0256 49.5601 38.3729L48.8233 43.5367C48.7191 44.2623 49.2229 44.9351 49.9487 45.0393C49.9489 45.0393 49.9489 45.0393 49.949 45.0393L57.834 46.1663C57.8961 46.1743 57.9586 46.1783 58.0212 46.1783C58.6821 46.1791 59.2428 45.6936 59.3367 45.0393L60.0734 39.8756C60.1768 39.1498 60.849 38.6452 61.5748 38.7486C61.9236 38.7982 62.2382 38.9845 62.4495 39.2663L65.5797 43.4384C66.0195 44.025 66.8515 44.1438 67.4381 43.7039L73.8098 38.9251C74.3964 38.4853 74.5152 37.6533 74.0753 37.0667L70.9465 32.8946C70.6181 32.467 70.5864 31.8816 70.8669 31.4211C71.1325 30.952 71.6622 30.6978 72.1943 30.7839L77.3581 31.5207C78.0837 31.6249 78.7565 31.1209 78.8607 30.3953C78.8607 30.3952 78.8607 30.3952 78.8607 30.395L79.9864 22.51C80.0906 21.7842 79.5868 21.1115 78.8611 21.0073ZM34.864 68.0413H45.4835V70.6962H34.864V68.0413ZM34.864 73.3511H45.4835V74.6785C45.4835 76.1448 44.2949 77.3334 42.8286 77.3334H37.5188C36.0525 77.3334 34.864 76.1448 34.864 74.6785V73.3511ZM24.2962 50.4593C25.021 51.052 25.7783 51.6039 26.5648 52.112C27.8191 52.9046 28.7632 54.1038 29.2396 55.5089L26.3922 58.3509L23.6351 56.45C22.4278 55.6181 20.7746 55.9224 19.9425 57.1297C19.7431 57.4192 19.603 57.7455 19.5307 58.0894L18.8351 61.4041H15.6798L14.9842 58.0947C14.6822 56.6599 13.2743 55.7415 11.8395 56.0435C11.4955 56.1159 11.1693 56.2559 10.8797 56.4554L8.1213 58.3509L5.7027 55.9377L7.60227 53.1819C8.43507 51.9751 8.13175 50.3217 6.92494 49.4889C6.63523 49.289 6.30867 49.1486 5.9642 49.0761L2.65489 48.3792V45.2252L5.9642 44.5283C7.39851 44.2241 8.31477 42.8149 8.01062 41.3804C7.93844 41.0401 7.80022 40.7174 7.6036 40.4305L5.7027 37.6667L8.1213 35.2534L10.8811 37.1543C12.0889 37.9855 13.742 37.6802 14.5732 36.4724C14.7723 36.1831 14.912 35.8573 14.9842 35.5136L15.2165 34.4092C15.4292 35.9387 15.7815 37.4454 16.2691 38.9105C11.9014 39.4312 8.7827 43.3943 9.30339 47.7621C9.82408 52.1299 13.7872 55.2485 18.1549 54.7279C20.7843 54.4142 23.0859 52.8145 24.2962 50.4593ZM22.2347 48.5889C21.2434 51.3442 18.2064 52.7742 15.4511 51.7831C12.6958 50.7918 11.2658 47.7548 12.2569 44.9995C13.0152 42.8917 15.0165 41.4878 17.2566 41.4924C17.2738 41.4924 17.2898 41.4924 17.307 41.4924C18.5278 44.1246 20.1949 46.5254 22.2347 48.5889ZM76.4129 28.7012L72.5633 28.1516C70.386 27.8407 68.3689 29.3538 68.058 31.531C67.9087 32.5765 68.1808 33.6386 68.8146 34.4835L71.147 37.5937L66.8991 40.7796L64.5655 37.6707C63.246 35.911 60.7499 35.5541 58.9904 36.8736C58.1455 37.5071 57.5868 38.4504 57.4371 39.4959L56.8995 43.3508L51.6442 42.5995L52.1937 38.7499C52.5055 36.5727 50.9932 34.555 48.8161 34.2434C47.7699 34.0936 46.7072 34.3657 45.8618 34.9999L42.7516 37.3322L39.5658 33.0844L42.6746 30.7507C44.4343 29.4313 44.7912 26.9352 43.4718 25.1757C42.8382 24.3307 41.8949 23.772 40.8494 23.6224L36.9998 23.0728L37.7511 17.8175L41.6007 18.367C43.7779 18.6788 45.7956 17.1665 46.1072 14.9894C46.2571 13.9432 45.9849 12.8805 45.3508 12.0351L43.0105 8.92227L47.2583 5.73641L49.5919 8.84661C50.9114 10.6063 53.4075 10.9632 55.167 9.64374C56.012 9.01022 56.5706 8.0669 56.7203 7.02138L57.2699 3.17179L62.5252 3.9218L61.9757 7.77138C61.6647 9.94872 63.1777 11.9658 65.355 12.2767C66.4005 12.4261 67.4626 12.1539 68.3076 11.5201L71.4178 9.18776L74.6036 13.4356L71.4934 15.7692C69.7337 17.0887 69.3768 19.5848 70.6963 21.3443C71.3298 22.1892 72.2731 22.7479 73.3187 22.8976L77.1682 23.4472L76.4129 28.7012Z" fill="url(#paint0_linear_163_638)"/>
<path d="M57.08 12.6392C51.215 12.6392 46.4604 17.3937 46.4604 23.2587C46.4604 29.1237 51.215 33.8783 57.08 33.8783C62.945 33.8783 67.6995 29.1237 67.6995 23.2587C67.6929 17.3964 62.9423 12.6456 57.08 12.6392ZM57.08 31.2234C52.6812 31.2234 49.1153 27.6575 49.1153 23.2587C49.1153 18.8599 52.6812 15.294 57.08 15.294C61.4788 15.294 65.0446 18.8599 65.0446 23.2587C65.0395 27.6554 61.4766 31.2182 57.08 31.2234Z" fill="url(#paint1_linear_163_638)"/>
<path d="M41.5011 58.749H38.8462V62.7314H41.5011V58.749Z" fill="url(#paint2_linear_163_638)"/>
<path d="M34.3673 45.7123C26.1728 42.5112 22.125 33.2732 25.3263 25.0787C26.5668 21.9035 28.7931 19.2099 31.6779 17.394L30.2589 15.1479C21.5747 20.6188 18.9698 32.0938 24.4407 40.7779C26.5595 44.1411 29.7009 46.7364 33.4036 48.1827C36.6811 49.4384 38.8453 52.5845 38.8461 56.0942H41.501C41.5052 51.4893 38.6674 47.3595 34.3673 45.7123Z" fill="url(#paint3_linear_163_638)"/>
<path d="M74.6871 49.457H65.395V52.1119H74.6871V49.457Z" fill="url(#paint4_linear_163_638)"/>
<path d="M64.9177 56.4009L63.2183 58.4407L71.1835 65.0768L72.8829 63.0371L64.9177 56.4009Z" fill="url(#paint5_linear_163_638)"/>
<path d="M60.0855 60.0767H57.4307V69.3688H60.0855V60.0767Z" fill="url(#paint6_linear_163_638)"/>
<path d="M11.9743 20.2923L1.35547 22.9468L1.99896 25.521L12.6178 22.8666L11.9743 20.2923Z" fill="url(#paint7_linear_163_638)"/>
<path d="M5.10279 7.22801L3.56055 9.38721L12.8519 16.0237L14.3942 13.8645L5.10279 7.22801Z" fill="url(#paint8_linear_163_638)"/>
<path d="M17.5061 0.010842L14.9341 0.668457L17.649 11.2872L20.2211 10.6296L17.5061 0.010842Z" fill="url(#paint9_linear_163_638)"/>
</g>
<defs>
<linearGradient id="paint0_linear_163_638" x1="40" y1="0.341309" x2="40" y2="79.9883" gradientUnits="userSpaceOnUse">
<stop stop-color="#FD1E43"/>
<stop offset="1" stop-color="#F4197D"/>
</linearGradient>
<linearGradient id="paint1_linear_163_638" x1="57.08" y1="12.6392" x2="57.08" y2="33.8783" gradientUnits="userSpaceOnUse">
<stop stop-color="#FD1E43"/>
<stop offset="1" stop-color="#F4197D"/>
</linearGradient>
<linearGradient id="paint2_linear_163_638" x1="40.1736" y1="58.749" x2="40.1736" y2="62.7314" gradientUnits="userSpaceOnUse">
<stop stop-color="#FD1E43"/>
<stop offset="1" stop-color="#F4197D"/>
</linearGradient>
<linearGradient id="paint3_linear_163_638" x1="31.5396" y1="15.1479" x2="31.5396" y2="56.0942" gradientUnits="userSpaceOnUse">
<stop stop-color="#FD1E43"/>
<stop offset="1" stop-color="#F4197D"/>
</linearGradient>
<linearGradient id="paint4_linear_163_638" x1="70.0411" y1="49.457" x2="70.0411" y2="52.1119" gradientUnits="userSpaceOnUse">
<stop stop-color="#FD1E43"/>
<stop offset="1" stop-color="#F4197D"/>
</linearGradient>
<linearGradient id="paint5_linear_163_638" x1="64.068" y1="57.4208" x2="72.0332" y2="64.0569" gradientUnits="userSpaceOnUse">
<stop stop-color="#FD1E43"/>
<stop offset="1" stop-color="#F4197D"/>
</linearGradient>
<linearGradient id="paint6_linear_163_638" x1="58.7581" y1="60.0767" x2="58.7581" y2="69.3688" gradientUnits="userSpaceOnUse">
<stop stop-color="#FD1E43"/>
<stop offset="1" stop-color="#F4197D"/>
</linearGradient>
<linearGradient id="paint7_linear_163_638" x1="6.66487" y1="21.6196" x2="7.30836" y2="24.1938" gradientUnits="userSpaceOnUse">
<stop stop-color="#FD1E43"/>
<stop offset="1" stop-color="#F4197D"/>
</linearGradient>
<linearGradient id="paint8_linear_163_638" x1="4.33167" y1="8.30761" x2="13.623" y2="14.9441" gradientUnits="userSpaceOnUse">
<stop stop-color="#FD1E43"/>
<stop offset="1" stop-color="#F4197D"/>
</linearGradient>
<linearGradient id="paint9_linear_163_638" x1="16.2201" y1="0.33965" x2="18.9351" y2="10.9584" gradientUnits="userSpaceOnUse">
<stop stop-color="#FD1E43"/>
<stop offset="1" stop-color="#F4197D"/>
</linearGradient>
<clipPath id="clip0_163_638">
<rect width="80" height="80" fill="white"/>
</clipPath>
</defs>
</svg>
