<svg width="80" height="80" viewBox="0 0 80 80" fill="none" xmlns="http://www.w3.org/2000/svg">
<g clip-path="url(#clip0_163_623)">
<path d="M68.7559 0H65.3163C63.8044 0 63.8044 2.34409 65.3163 2.34409H68.7559C72.3079 2.34409 75.1979 5.22357 75.1979 8.76283V35.8874C75.1979 39.4268 72.3081 42.3063 68.7559 42.3063H64.8548C64.5975 42.3063 64.3473 42.391 64.1427 42.5474L56.9845 48.0229V43.4783C56.9845 42.831 56.4599 42.3063 55.8124 42.3063H41.5479C40.3797 42.3063 39.2571 41.9979 38.2669 41.4118V28.2549C38.2669 25.7904 37.0118 23.6131 35.1057 22.3249V8.76283C35.1057 5.22357 37.9957 2.34409 41.5479 2.34409H57.9715C59.4833 2.34409 59.4833 0 57.9715 0H41.5479C36.7031 0 32.7616 3.93104 32.7616 8.76283V21.2948C32.225 21.1666 31.6658 21.0968 31.0904 21.0968H9.63484C5.67787 21.0968 2.4585 24.3079 2.4585 28.2549V30.7857C2.4585 32.2975 4.80258 32.2975 4.80258 30.7857V28.2549C4.80258 25.6004 6.97024 23.4409 9.63484 23.4409H31.0906C33.7552 23.4409 35.923 25.6004 35.923 28.2549V41.8784C35.9089 41.9818 35.9096 42.0861 35.923 42.1887V49.6448C35.923 49.7922 35.9141 49.9389 35.9008 50.0849H33.4838C30.8204 50.0849 28.6001 52.0072 28.1397 54.5337C28.0331 54.5738 27.9308 54.6299 27.8359 54.7031L22.5937 58.7507V55.6308C22.5937 54.9836 22.0691 54.4588 21.4217 54.4588H9.63484C6.97024 54.4588 4.80258 52.2993 4.80258 49.6448V37.818C4.80258 36.3062 2.4585 36.3062 2.4585 37.818V49.645C2.4585 53.592 5.67787 56.803 9.63484 56.803H20.2498V61.1365C20.2498 62.0766 21.3914 62.6406 22.1382 62.0643L28.0508 57.4991V70.6846C28.0508 73.6733 30.4882 76.1046 33.4839 76.1046H40.6764V78.8395C40.6764 79.7793 41.8179 80.3439 42.5646 79.7673L47.3084 76.1046H48.7099C51.7056 76.1046 54.143 73.6731 54.143 70.6846V68.6037C54.143 67.0919 51.7989 67.0919 51.7989 68.6037V70.6846C51.7989 72.3808 50.4132 73.7605 48.7099 73.7605H46.9085C46.6493 73.7605 46.3973 73.8464 46.1923 74.0047L43.0203 76.4537V74.9324C43.0203 74.2851 42.4957 73.7603 41.8482 73.7603H33.4838C31.7805 73.7603 30.3947 72.3804 30.3947 70.6844V55.505C30.3947 53.8089 31.7804 52.4291 33.4838 52.4291H48.7099C50.4131 52.4291 51.7989 53.809 51.7989 55.505V61.2588C51.7989 62.7706 54.143 62.7706 54.143 61.2588V55.5052C54.143 52.5165 51.7056 50.0852 48.7099 50.0852H38.2537C38.2626 49.9388 38.2671 44.019 38.2671 44.019C39.3005 44.4345 40.4085 44.6505 41.548 44.6505H54.6406V50.3951C54.6406 51.3329 55.7773 51.8975 56.5247 51.326L65.2519 44.6505H68.756C73.6006 44.6505 77.5421 40.7195 77.5421 35.8875V8.76283C77.542 3.93104 73.6005 0 68.7559 0V0Z" fill="url(#paint0_linear_163_623)"/>
<path d="M58.0801 8.65945C56.5919 8.27955 55.0754 9.45534 55.0754 10.9931C55.0754 12.6732 54.4631 14.2923 53.3522 15.5514L50.123 19.2055C49.9139 18.8847 49.5526 18.6723 49.1411 18.6723H42.8371C42.1896 18.6723 41.665 19.1971 41.665 19.8443V34.0284C41.665 34.6757 42.1896 35.2005 42.8371 35.2005H49.1411C49.6148 35.2005 50.0217 34.919 50.2066 34.5149C51.4829 35.2947 52.9618 35.7163 54.4666 35.7163H65.6076C67.31 35.7163 68.7144 34.2391 68.6346 32.541C68.5991 31.789 68.6378 21.6918 68.6378 21.4675C68.6378 19.7967 67.2784 18.4371 65.611 18.4371L59.8175 18.4198L60.0574 17.8517C61.1536 15.2556 60.9731 12.2451 59.5751 9.79836C59.2488 9.22672 58.7177 8.82244 58.0801 8.65945C58.7177 8.82244 57.4422 8.49661 58.0801 8.65945C58.7177 8.82244 56.592 8.27955 58.0801 8.65945ZM47.9691 32.8564H44.0091V21.0164H47.9691V32.8564ZM65.6076 20.781C65.9861 20.781 66.2939 21.0889 66.2939 21.4674C66.2939 21.6904 66.2916 22.2956 66.2884 23.1162C66.2711 27.6469 66.2595 31.9378 66.293 32.651C66.3052 32.9084 66.18 33.08 66.1044 33.1594C65.9734 33.2966 65.797 33.3721 65.6076 33.3721H54.4666C53.1386 33.3721 51.8389 32.9119 50.8065 32.0763L50.3132 31.6768V22.53L55.1093 17.1029C56.5991 15.4145 57.4195 13.2446 57.4195 10.9929C57.4195 10.9266 57.51 10.9095 57.54 10.961C58.578 12.7774 58.7117 15.0122 57.898 16.9395L56.973 19.1303C56.8204 19.4918 56.8588 19.9054 57.0749 20.2327C57.2914 20.5599 57.657 20.7571 58.0491 20.7584L65.6076 20.781Z" fill="url(#paint1_linear_163_623)"/>
<path d="M12.4943 40.7089C11.8469 40.7089 11.3223 41.2337 11.3223 41.8809C11.3223 42.5282 11.8469 43.053 12.4943 43.053H15.9492L15.3038 46.9565C15.1981 47.595 15.6304 48.1984 16.2689 48.3041C16.3338 48.3148 16.398 48.32 16.4614 48.32C17.0247 48.32 17.5214 47.9129 17.6165 47.3389L18.325 43.0531H21.1524L20.507 46.9567C20.4014 47.5952 20.8336 48.1986 21.4722 48.3042C21.537 48.315 21.6013 48.3202 21.6647 48.3202C22.2279 48.3202 22.7247 47.9131 22.8197 47.3391L23.5283 43.0533H28.231C28.8784 43.0533 29.403 42.5285 29.403 41.8813C29.403 41.234 28.8784 40.7092 28.231 40.7092H23.9158L24.3885 37.85H28.231C28.8784 37.85 29.403 37.3253 29.403 36.678C29.403 36.0307 28.8784 35.506 28.231 35.506H24.7761L25.4215 31.6024C25.5271 30.9639 25.0949 30.3605 24.4564 30.2549C23.817 30.1489 23.2145 30.5815 23.1088 31.22L22.4003 35.5058H19.5728L20.2182 31.6023C20.3239 30.9637 19.8916 30.3604 19.2531 30.2547C18.613 30.1488 18.0114 30.5813 17.9056 31.2199L17.197 35.5056H12.4943C11.8469 35.5056 11.3223 36.0304 11.3223 36.6777C11.3223 37.325 11.8469 37.8497 12.4943 37.8497H16.8095L16.3367 40.7089H12.4943ZM19.1854 37.8497H22.0129L21.5402 40.7089H18.7127L19.1854 37.8497Z" fill="url(#paint2_linear_163_623)"/>
<path d="M41.0825 58.4765C40.1361 57.6973 38.877 57.3899 37.614 57.697C35.9955 58.09 34.3623 59.6031 34.3623 62.097C34.3623 63.6493 34.9288 64.9967 36.0941 66.2162C37.046 67.2125 38.4196 68.1598 40.5477 69.2881C40.7195 69.3792 40.9081 69.4247 41.0967 69.4247C41.2853 69.4247 41.474 69.3792 41.6457 69.2881C45.3584 67.3198 47.831 65.3438 47.831 62.097C47.831 59.5895 46.1398 58.0919 44.4636 57.7201C43.2044 57.4407 41.9836 57.7373 41.0825 58.4765ZM45.4867 62.097C45.4867 63.8482 44.3252 65.1433 41.0966 66.9205C37.868 65.1431 36.7062 63.8481 36.7062 62.097C36.7062 60.794 37.4607 60.1464 38.1669 59.9748C38.2971 59.9433 38.4365 59.9255 38.5798 59.9255C39.111 59.9255 39.695 60.1708 40.055 60.8689C40.2602 61.2661 40.6749 61.5124 41.1198 61.5032C41.5666 61.4943 41.9697 61.2321 42.1586 60.827C42.5379 60.0141 43.3355 59.8711 43.9556 60.0088C44.696 60.1727 45.4867 60.8076 45.4867 62.097Z" fill="url(#paint3_linear_163_623)"/>
</g>
<defs>
<linearGradient id="paint0_linear_163_623" x1="40.0003" y1="0" x2="40.0003" y2="80.0001" gradientUnits="userSpaceOnUse">
<stop stop-color="#FD1E43"/>
<stop offset="1" stop-color="#F4197D"/>
</linearGradient>
<linearGradient id="paint1_linear_163_623" x1="55.1514" y1="8.52148" x2="55.1514" y2="35.7163" gradientUnits="userSpaceOnUse">
<stop stop-color="#FD1E43"/>
<stop offset="1" stop-color="#F4197D"/>
</linearGradient>
<linearGradient id="paint2_linear_163_623" x1="20.3626" y1="30.2388" x2="20.3626" y2="48.3202" gradientUnits="userSpaceOnUse">
<stop stop-color="#FD1E43"/>
<stop offset="1" stop-color="#F4197D"/>
</linearGradient>
<linearGradient id="paint3_linear_163_623" x1="41.0966" y1="57.5796" x2="41.0966" y2="69.4247" gradientUnits="userSpaceOnUse">
<stop stop-color="#FD1E43"/>
<stop offset="1" stop-color="#F4197D"/>
</linearGradient>
<clipPath id="clip0_163_623">
<rect width="80" height="80" fill="white"/>
</clipPath>
</defs>
</svg>
